<svg id="Layer_1" data-name="Layer 1" xmlns="http://www.w3.org/2000/svg" viewBox="0 0 7.5 7.5"><defs><style>.cls-1{fill:#7f7f7f;}</style></defs><title>chat</title><path class="cls-1" d="M1314.4,347.9v-.2h0a2.5,2.5,0,0,1,.4-3.3,3.7,3.7,0,0,0-.1.6,2.9,2.9,0,0,0,.9,2.1,3.1,3.1,0,0,0,2.2.9h.8a2.6,2.6,0,0,1-2.1,1l-1-.2h-.3l-1,.4.2-1.1Zm3.8-6.3a3.1,3.1,0,0,1,2.2.9,2.9,2.9,0,0,1,.9,2.1,2.9,2.9,0,0,1-.5,1.6h0v.2l.3,1.3-1.2-.5h-1.6a3,3,0,0,1-2.2-.9,2.8,2.8,0,0,1-.9-2.1,3.6,3.6,0,0,1,.1-.6,2.9,2.9,0,0,1,1.1-1.7A3.1,3.1,0,0,1,1318.2,341.6Z" transform="translate(-1313.9 -341.6)"/></svg>