<svg id="Layer_1" data-name="Layer 1" xmlns="http://www.w3.org/2000/svg" viewBox="0 0 37.9 37.9"><defs><style>.cls-1{fill:#fff;}.cls-2{fill:#009ee0;}</style></defs><title>close</title><circle class="cls-1" cx="18.9" cy="19.1" r="14"/><path class="cls-2" d="M1317.1,363.8a19,19,0,1,1,19-19A19,19,0,0,1,1317.1,363.8Zm8.9-14.5-4.5-4.5,4.5-4.5a1.6,1.6,0,0,0,.5-1.1,1.6,1.6,0,0,0-.5-1.1l-2.2-2.2a1.6,1.6,0,0,0-1.1-.5,1.6,1.6,0,0,0-1.1.5l-4.5,4.5-4.5-4.5a1.6,1.6,0,0,0-1.1-.5,1.6,1.6,0,0,0-1.1.5l-2.2,2.2a1.6,1.6,0,0,0-.5,1.1,1.6,1.6,0,0,0,.5,1.1l4.5,4.5-4.5,4.5a1.6,1.6,0,0,0-.5,1.1,1.6,1.6,0,0,0,.5,1.1l2.2,2.2a1.6,1.6,0,0,0,1.1.5,1.6,1.6,0,0,0,1.1-.5l4.5-4.5,4.5,4.5a1.6,1.6,0,0,0,1.1.5,1.6,1.6,0,0,0,1.1-.5l2.2-2.2a1.6,1.6,0,0,0,.5-1.1A1.6,1.6,0,0,0,1326,349.3Z" transform="translate(-1298.1 -325.9)"/></svg>