<svg id="Layer_1" data-name="Layer 1" xmlns="http://www.w3.org/2000/svg" viewBox="0 0 6.9 6.9"><defs><style>.cls-1{fill:#7f7f7f;}</style></defs><title>like</title><path class="cls-1" d="M1324,345.8a.6.6,0,0,1-.4.6.5.5,0,0,1,.3.5.5.5,0,0,1-.4.5.5.5,0,0,1,.1.3.5.5,0,0,1-.4.5.6.6,0,0,1,.1.3.4.4,0,0,1-.1.3l-.5.2a7.8,7.8,0,0,1-2.3.2h-1.4v.6h-2v-4.3h2v.3l.7-.3a2.7,2.7,0,0,0,.7-1.9,1.3,1.3,0,0,1,.1-.6q.2-.2.5.1a1.1,1.1,0,0,1,.4.6v.4a2.1,2.1,0,0,1,0,.4v.7h1.8l.4.2a.6.6,0,0,1,.2.4Zm-6.3,3.1a.3.3,0,1,0,.3-.3A.3.3,0,0,0,1317.6,348.9Z" transform="translate(-1317.1 -342.9)"/></svg>