<svg id="Layer_1" data-name="Layer 1" xmlns="http://www.w3.org/2000/svg" viewBox="0 0 149.8 48.4"><defs><style>.cls-1{fill:#009ee0;}.cls-2{fill:#22366f;}.cls-3{fill:#231f20;}.cls-4{fill:#9e9e9c;}</style></defs><title>logo</title><path class="cls-1" d="M1299,362.5a38.7,38.7,0,0,0,11.8,1.8,62.2,62.2,0,0,0,11.8-1.1,94.2,94.2,0,0,0,11.4-2.8,100.5,100.5,0,0,0,10.9-4.1,98.1,98.1,0,0,1,23.3-7,56.8,56.8,0,0,1,6.2-.6,42.8,42.8,0,0,1,6.2.1,37.7,37.7,0,0,1,6.1,1,42.8,42.8,0,0,1,5.7,1.9c-2-.5-3.9-.9-5.9-1.2a42.3,42.3,0,0,0-6-.4,53.1,53.1,0,0,0-5.9.4l-5.8,1a92.8,92.8,0,0,0-11.3,3.2c-3.7,1.3-7.3,2.8-10.9,4.4a85.4,85.4,0,0,1-11.4,4.3,64.4,64.4,0,0,1-12.1,2.3,58.7,58.7,0,0,1-12.4-.2,54.7,54.7,0,0,1-6-1.1l-2.9-.8a19.2,19.2,0,0,1-2.8-1.1Z" transform="translate(-1242.5 -320.6)"/><path class="cls-2" d="M1294.1,358.1a39,39,0,0,0,11.8,1.8,63.3,63.3,0,0,0,11.8-1.1,93,93,0,0,0,11.4-2.8,100.8,100.8,0,0,0,11-4.1,98.1,98.1,0,0,1,23.3-7,56.7,56.7,0,0,1,6.1-.6,45.7,45.7,0,0,1,6.2.1,36.3,36.3,0,0,1,6.1,1,44.1,44.1,0,0,1,5.7,1.9h0a57.6,57.6,0,0,0-5.9-1.2,44.5,44.5,0,0,0-5.9-.4,56.7,56.7,0,0,0-5.9.4c-2,.2-3.9.6-5.8,1a90.2,90.2,0,0,0-11.3,3.2c-3.7,1.3-7.3,2.8-10.9,4.4a86.2,86.2,0,0,1-11.4,4.3,64.4,64.4,0,0,1-12.1,2.3,59.7,59.7,0,0,1-12.4-.2,48.6,48.6,0,0,1-6-1.1l-2.9-.8a18,18,0,0,1-2.8-1.1Z" transform="translate(-1242.5 -320.6)"/><path class="cls-1" d="M1289.2,353.8a39,39,0,0,0,11.8,1.8,61.9,61.9,0,0,0,11.8-1.1,95,95,0,0,0,11.4-2.8,107,107,0,0,0,11-4.1,97.2,97.2,0,0,1,23.3-7,57.1,57.1,0,0,1,6.2-.6,43.5,43.5,0,0,1,6.2.1,36.1,36.1,0,0,1,6.1,1,42.2,42.2,0,0,1,5.7,1.9c-2-.5-3.9-.9-5.9-1.2a42.3,42.3,0,0,0-5.9-.4,52.8,52.8,0,0,0-5.9.4c-2,.2-3.9.6-5.8,1a93.3,93.3,0,0,0-11.3,3.2c-3.7,1.3-7.3,2.8-10.9,4.4a89,89,0,0,1-11.4,4.3,64.8,64.8,0,0,1-12.1,2.3,58.9,58.9,0,0,1-12.4-.2,47.8,47.8,0,0,1-6-1.1l-2.9-.8a16.9,16.9,0,0,1-2.8-1.1Z" transform="translate(-1242.5 -320.6)"/><polygon class="cls-3" points="1.1 0.2 5 0.2 10 7.7 10 0.2 13.9 0.2 13.9 13.7 10 13.7 5 6.3 5 13.7 1.1 13.7 1.1 0.2"/><path class="cls-3" d="M1262.4,327.7l-3.6-.4a4,4,0,0,1,.6-1.5,3.2,3.2,0,0,1,1.1-.9l1.4-.4,1.9-.2,2.7.2a3.5,3.5,0,0,1,1.7.8,2.8,2.8,0,0,1,.8,1.2,4.2,4.2,0,0,1,.3,1.4v4.3a5.2,5.2,0,0,0,.1,1.1,4.8,4.8,0,0,0,.4,1h-3.5l-.3-.6V333a4.8,4.8,0,0,1-1.5,1,6.1,6.1,0,0,1-2.3.4,3.8,3.8,0,0,1-2.6-.8,2.6,2.6,0,0,1-.9-2,2.6,2.6,0,0,1,.7-1.8,4.4,4.4,0,0,1,2.4-1.1l2.7-.6,1.3-.4a1.3,1.3,0,0,0-.3-1,1.4,1.4,0,0,0-1-.3,2.6,2.6,0,0,0-1.4.3,1.6,1.6,0,0,0-.6.9m3.2,2-1.6.5a3.7,3.7,0,0,0-1.4.6.9.9,0,0,0-.3.7.9.9,0,0,0,.3.7,1.3,1.3,0,0,0,.9.3,2.3,2.3,0,0,0,1.2-.3,1.8,1.8,0,0,0,.8-.7,2.5,2.5,0,0,0,.2-1.1Z" transform="translate(-1242.5 -320.6)"/><path class="cls-3" d="M1271.5,324.5h3.5v1.4a4.9,4.9,0,0,1,1.5-1.3,4.2,4.2,0,0,1,1.8-.4,3.5,3.5,0,0,1,1.8.4,3.1,3.1,0,0,1,1.1,1.2,5.6,5.6,0,0,1,1.6-1.3,4.1,4.1,0,0,1,1.8-.3,3.2,3.2,0,0,1,2.4.9,4.1,4.1,0,0,1,.9,2.9v6.1h-3.7v-5.5a1.6,1.6,0,0,0-.3-1,1.1,1.1,0,0,0-.9-.5,1.3,1.3,0,0,0-1.1.5,2.3,2.3,0,0,0-.4,1.5v5h-3.7v-5.4a3.4,3.4,0,0,0-.1-.9,1.2,1.2,0,0,0-.4-.6l-.7-.2a1.3,1.3,0,0,0-1.1.5,2.4,2.4,0,0,0-.4,1.6v5h-3.7Z" transform="translate(-1242.5 -320.6)"/><path class="cls-3" d="M1290.4,320.8h3.7v2.5h-3.7Zm0,3.7h3.7v9.7h-3.7Z" transform="translate(-1242.5 -320.6)"/><path class="cls-3" d="M1296.5,320.8h3.8v4.7a3.7,3.7,0,0,1,1.3-.9,4.1,4.1,0,0,1,1.6-.3,3.8,3.8,0,0,1,2.9,1.3,5.3,5.3,0,0,1,1.2,3.7,7,7,0,0,1-.5,2.8,4,4,0,0,1-1.5,1.8,3.8,3.8,0,0,1-2.1.6,3.8,3.8,0,0,1-1.8-.4,4.7,4.7,0,0,1-1.3-1.2v1.4h-3.5Zm3.7,8.5a2.8,2.8,0,0,0,.5,1.8,1.5,1.5,0,0,0,1.2.6,1.4,1.4,0,0,0,1.1-.6,3,3,0,0,0,.5-1.9,2.6,2.6,0,0,0-.4-1.7,1.3,1.3,0,0,0-1.1-.5,1.6,1.6,0,0,0-1.2.6,2.6,2.6,0,0,0-.5,1.7" transform="translate(-1242.5 -320.6)"/><polygon class="cls-3" points="73 0.2 77.1 0.2 77.1 10.3 83.6 10.3 83.6 13.7 73 13.7 73 0.2"/><path class="cls-3" d="M1338.6,330.3h-7.5a2.4,2.4,0,0,0,.5,1.3,1.8,1.8,0,0,0,1.4.6l1-.3.6-.6,3.7.3a5.3,5.3,0,0,1-2,2.1,7.4,7.4,0,0,1-3.4.6,7,7,0,0,1-3-.5,4.5,4.5,0,0,1-1.8-1.7,5.2,5.2,0,0,1-.7-2.8,4.9,4.9,0,0,1,1.5-3.7,5.6,5.6,0,0,1,4-1.4,7.2,7.2,0,0,1,3.3.6,4.3,4.3,0,0,1,1.8,1.8,6.7,6.7,0,0,1,.6,3.1Zm-3.8-1.8a2.5,2.5,0,0,0-.6-1.5,1.8,1.8,0,0,0-2.7.2,2.6,2.6,0,0,0-.4,1.3Z" transform="translate(-1242.5 -320.6)"/><path class="cls-3" d="M1343.7,327.7l-3.6-.4a4,4,0,0,1,.6-1.5,3.2,3.2,0,0,1,1.1-.9l1.4-.4,1.9-.2,2.7.2a3.5,3.5,0,0,1,1.7.8,2.7,2.7,0,0,1,.8,1.2,4.2,4.2,0,0,1,.3,1.4v4.3a5.2,5.2,0,0,0,.1,1.1,4.8,4.8,0,0,0,.4,1h-3.5l-.3-.6V333a4.8,4.8,0,0,1-1.5,1,6.1,6.1,0,0,1-2.3.4,3.8,3.8,0,0,1-2.6-.8,2.6,2.6,0,0,1-.9-2,2.6,2.6,0,0,1,.7-1.8,4.4,4.4,0,0,1,2.4-1.1l2.7-.6,1.3-.4a1.3,1.3,0,0,0-.3-1,1.4,1.4,0,0,0-1-.3,2.6,2.6,0,0,0-1.4.3,1.6,1.6,0,0,0-.6.9m3.2,2-1.6.5a3.7,3.7,0,0,0-1.4.6,1,1,0,0,0,0,1.4,1.3,1.3,0,0,0,.9.3,2.3,2.3,0,0,0,1.2-.3,1.8,1.8,0,0,0,.8-.7,2.5,2.5,0,0,0,.2-1.1Z" transform="translate(-1242.5 -320.6)"/><path class="cls-3" d="M1363,320.8v13.4h-3.5v-1.4a4.7,4.7,0,0,1-1.3,1.2,3.8,3.8,0,0,1-1.8.4,3.5,3.5,0,0,1-3-1.5,6.3,6.3,0,0,1-1-3.7,5.3,5.3,0,0,1,1.2-3.7,3.8,3.8,0,0,1,2.9-1.3,4.1,4.1,0,0,1,1.6.3,3.6,3.6,0,0,1,1.3.9v-4.7Zm-3.7,8.5a2.6,2.6,0,0,0-.5-1.7,1.6,1.6,0,0,0-1.2-.6,1.4,1.4,0,0,0-1.1.5,2.9,2.9,0,0,0-.4,1.8,2.7,2.7,0,0,0,.5,1.7,1.4,1.4,0,0,0,1.1.6,1.5,1.5,0,0,0,1.2-.6,2.8,2.8,0,0,0,.5-1.8" transform="translate(-1242.5 -320.6)"/><path class="cls-3" d="M1382.4,327.7l2.9.6-.4,1.3-.6,1.1,1.4,1,.7.4-2,2.3-1.1-.7-1.1-.7a7.4,7.4,0,0,1-1.9.9,10.6,10.6,0,0,1-3.1.4,6,6,0,0,1-4-1.1,3.4,3.4,0,0,1-1.3-2.7,3.5,3.5,0,0,1,.8-2.2,5.8,5.8,0,0,1,2.5-1.7,6.6,6.6,0,0,1-1-1.5,3.4,3.4,0,0,1-.3-1.3,3,3,0,0,1,1.1-2.4,5,5,0,0,1,3.3-.9,5.2,5.2,0,0,1,3.3.9,2.7,2.7,0,0,1,1.1,2.1,2.9,2.9,0,0,1-.3,1.3,3.4,3.4,0,0,1-.8,1l-1.6,1.2,2,1.8.5-1.2m-5.6.9a4,4,0,0,0-1,.9,1.5,1.5,0,0,0-.3.8,1.6,1.6,0,0,0,.6,1.2,2.2,2.2,0,0,0,1.5.5,4.4,4.4,0,0,0,2.2-.8l-3-2.7m1.3-3.3a3.9,3.9,0,0,0,1.1-.9,1.4,1.4,0,0,0,.4-.9.9.9,0,0,0-.3-.7,1.3,1.3,0,0,0-.9-.3,1.3,1.3,0,0,0-.9.3,1,1,0,0,0-.4.8,3,3,0,0,0,1,1.6" transform="translate(-1242.5 -320.6)"/><polygon class="cls-3" points="0.7 17.4 12.5 17.4 12.5 20.1 4.9 28 12.7 28 12.7 30.8 0 30.8 0 28.1 7.5 20.3 0.7 20.3 0.7 17.4"/><path class="cls-3" d="M1257,338h3.7v2.5H1257Zm0,3.7h3.7v9.7H1257Z" transform="translate(-1242.5 -320.6)"/><path class="cls-3" d="M1263.2,341.7h3.5v1.6a5.2,5.2,0,0,1,1.6-1.4,4.1,4.1,0,0,1,1.9-.4,3.2,3.2,0,0,1,2.4.9,4,4,0,0,1,.9,2.8v6.2h-3.7v-5.3a1.9,1.9,0,0,0-.3-1.3,1.2,1.2,0,0,0-1-.4,1.4,1.4,0,0,0-1.1.5,3,3,0,0,0-.4,1.8v4.7h-3.7Z" transform="translate(-1242.5 -320.6)"/><path class="cls-3" d="M1282.9,347.6l3.5.4a5,5,0,0,1-1,1.9,4.5,4.5,0,0,1-1.7,1.3,6.7,6.7,0,0,1-2.6.4,9.8,9.8,0,0,1-2.6-.3,4.5,4.5,0,0,1-1.8-.9,4.7,4.7,0,0,1-1.2-1.5,5.3,5.3,0,0,1-.4-2.3,5.4,5.4,0,0,1,.5-2.5,4.5,4.5,0,0,1,1-1.3,4.7,4.7,0,0,1,1.3-.9,7.4,7.4,0,0,1,2.8-.4,6.4,6.4,0,0,1,3.6.9,4.5,4.5,0,0,1,1.8,2.5l-3.5.5a1.6,1.6,0,0,0-.6-.9,2,2,0,0,0-1.2-.3,1.9,1.9,0,0,0-1.5.7,3,3,0,0,0-.6,2,2.6,2.6,0,0,0,.6,1.8,1.9,1.9,0,0,0,1.4.6,2,2,0,0,0,1.2-.4,2.2,2.2,0,0,0,.7-1.2" transform="translate(-1242.5 -320.6)"/><polygon class="cls-4" points="0 36.7 3.7 36.7 5.1 42.2 6.5 36.7 10.2 36.7 10.2 45.8 7.9 45.8 7.9 38.8 6.1 45.8 4.1 45.8 2.3 38.8 2.3 45.8 0 45.8 0 36.7"/><path class="cls-4" d="M1254.5,357.3h2.5V359h-2.5Zm0,2.5h2.5v6.6h-2.5Z" transform="translate(-1242.5 -320.6)"/><path class="cls-4" d="M1258.6,359.8h2.3v1.1a3.5,3.5,0,0,1,1.1-.9,2.8,2.8,0,0,1,1.3-.3,2.1,2.1,0,0,1,1.6.6,2.7,2.7,0,0,1,.6,1.9v4.2H1263v-3.6a1.3,1.3,0,0,0-.2-.9.8.8,0,0,0-.6-.3.9.9,0,0,0-.7.3,2,2,0,0,0-.3,1.2v3.2h-2.5Z" transform="translate(-1242.5 -320.6)"/><path class="cls-4" d="M1267.1,357.3h2.5V359h-2.5Zm0,2.5h2.5v6.6h-2.5Z" transform="translate(-1242.5 -320.6)"/><path class="cls-4" d="M1271.3,359.8h2.3v1.1a3.5,3.5,0,0,1,1.1-.9,2.8,2.8,0,0,1,1.3-.3,2.1,2.1,0,0,1,1.6.6,2.7,2.7,0,0,1,.6,1.9v4.2h-2.5v-3.6a1.3,1.3,0,0,0-.2-.9.8.8,0,0,0-.6-.3.9.9,0,0,0-.7.3,2,2,0,0,0-.3,1.2v3.2h-2.5Z" transform="translate(-1242.5 -320.6)"/><path class="cls-4" d="M1284.3,359.8h2.4v6.5a2.7,2.7,0,0,1-.3,1.2,2.5,2.5,0,0,1-.7.9,2.7,2.7,0,0,1-1.1.5l-1.5.2a4.5,4.5,0,0,1-2.7-.6,1.9,1.9,0,0,1-.7-1.6v-.3l2.4.3a.8.8,0,0,0,.3.5l.7.2a1.1,1.1,0,0,0,.8-.3,1.5,1.5,0,0,0,.3-1v-1l-.7.6a2.6,2.6,0,0,1-1.3.3,2.5,2.5,0,0,1-2.1-1.2,3.7,3.7,0,0,1-.6-2.2,3.3,3.3,0,0,1,.7-2.3,2.5,2.5,0,0,1,1.9-.8,2.7,2.7,0,0,1,1.3.3,2.8,2.8,0,0,1,.9.9Zm-2.4,3.2a1.6,1.6,0,0,0,.3,1.1,1.1,1.1,0,0,0,1.6,0,1.6,1.6,0,0,0,.3-1.1,1.6,1.6,0,0,0-.3-1.1,1.1,1.1,0,0,0-.8-.4.9.9,0,0,0-.8.3,1.8,1.8,0,0,0-.3,1.2" transform="translate(-1242.5 -320.6)"/></svg>