<svg id="Layer_1" data-name="Layer 1" xmlns="http://www.w3.org/2000/svg" viewBox="0 0 333.8 107.9"><defs><style>.cls-1{fill:#009ee0;}.cls-2{fill:#fff;}.cls-3{fill:#9e9e9c;}</style></defs><title>logo-footer</title><path class="cls-1" d="M1276.7,384.4a86.3,86.3,0,0,0,26.3,4,138.4,138.4,0,0,0,26.4-2.4,210.2,210.2,0,0,0,25.4-6.3,223.9,223.9,0,0,0,24.4-9.1c16.4-7,33.7-12.8,51.9-15.6a126.6,126.6,0,0,1,13.7-1.3,95.8,95.8,0,0,1,13.8.2,84,84,0,0,1,13.5,2.2,95.6,95.6,0,0,1,12.7,4.3c-4.4-1-8.7-2-13.1-2.6a94.5,94.5,0,0,0-13.3-.9,118.1,118.1,0,0,0-13.2.8c-4.4.5-8.7,1.3-13,2.2a206.8,206.8,0,0,0-25.2,7.2c-8.3,2.9-16.3,6.2-24.3,9.7a190.3,190.3,0,0,1-25.3,9.6,143.7,143.7,0,0,1-27,5.2,131,131,0,0,1-27.6-.4,121.7,121.7,0,0,1-13.4-2.5l-6.5-1.8a42.7,42.7,0,0,1-6.2-2.5Z" transform="translate(-1151 -291)"/><path class="cls-2" d="M1265.8,374.7a86.9,86.9,0,0,0,26.3,4,141.3,141.3,0,0,0,26.4-2.4,207.3,207.3,0,0,0,25.4-6.3,224.6,224.6,0,0,0,24.4-9.1c16.4-7,33.7-12.8,51.9-15.6a126.3,126.3,0,0,1,13.7-1.4,102,102,0,0,1,13.8.3,80.6,80.6,0,0,1,13.5,2.2,98.1,98.1,0,0,1,12.7,4.3h0a128.6,128.6,0,0,0-13.1-2.6,99.2,99.2,0,0,0-13.2-.9,126.5,126.5,0,0,0-13.2.9c-4.4.5-8.7,1.3-13,2.2a201.2,201.2,0,0,0-25.3,7.2c-8.2,2.9-16.3,6.2-24.3,9.7a191.8,191.8,0,0,1-25.3,9.6,143.4,143.4,0,0,1-27,5.2,133.1,133.1,0,0,1-27.5-.5,108.1,108.1,0,0,1-13.4-2.5c-2.2-.5-4.4-1.1-6.5-1.8a40.4,40.4,0,0,1-6.2-2.5Z" transform="translate(-1151 -291)"/><path class="cls-1" d="M1254.9,365.1a86.8,86.8,0,0,0,26.3,4,137.9,137.9,0,0,0,26.3-2.4,211.4,211.4,0,0,0,25.4-6.2,237.9,237.9,0,0,0,24.4-9.1c16.4-7,33.7-12.8,51.9-15.6a127.1,127.1,0,0,1,13.7-1.4,97,97,0,0,1,13.8.2,80.6,80.6,0,0,1,13.5,2.3,94.4,94.4,0,0,1,12.7,4.3c-4.4-1-8.7-2-13.1-2.6a94.3,94.3,0,0,0-13.2-.9,117.8,117.8,0,0,0-13.2.9c-4.4.5-8.7,1.3-13,2.2a207.8,207.8,0,0,0-25.2,7.2c-8.3,2.9-16.3,6.2-24.3,9.7a198.2,198.2,0,0,1-25.3,9.5,144.6,144.6,0,0,1-27,5.2,131.2,131.2,0,0,1-27.6-.4,107,107,0,0,1-13.4-2.5l-6.5-1.8a37.9,37.9,0,0,1-6.2-2.5Z" transform="translate(-1151 -291)"/><polygon class="cls-2" points="2.4 0.5 11.1 0.5 22.3 17.1 22.3 0.5 31 0.5 31 30.4 22.3 30.4 11.1 14 11.1 30.4 2.4 30.4 2.4 0.5"/><path class="cls-2" d="M1195.2,306.8l-7.9-.8a8.9,8.9,0,0,1,1.3-3.3,7.1,7.1,0,0,1,2.4-2.1,10.2,10.2,0,0,1,3.1-1,25.4,25.4,0,0,1,4.3-.3,34.5,34.5,0,0,1,6,.4,7.7,7.7,0,0,1,3.8,1.7,6.1,6.1,0,0,1,1.7,2.6,9.4,9.4,0,0,1,.6,3.2v9.6a11.5,11.5,0,0,0,.2,2.4,10.7,10.7,0,0,0,.8,2.2h-7.8l-.6-1.3a9.5,9.5,0,0,1-.3-1.4,10.7,10.7,0,0,1-3.2,2.2,13.5,13.5,0,0,1-5.1.9,8.6,8.6,0,0,1-5.9-1.8,5.7,5.7,0,0,1-2-4.4,5.8,5.8,0,0,1,1.4-4.1q1.4-1.6,5.3-2.4l6.1-1.3,2.9-1a2.9,2.9,0,0,0-.6-2.1,3.2,3.2,0,0,0-2.2-.6,5.7,5.7,0,0,0-3.1.7,3.6,3.6,0,0,0-1.3,1.9m7.2,4.4-3.6,1.1a8.3,8.3,0,0,0-3.2,1.3,2.1,2.1,0,0,0,0,3.1,2.9,2.9,0,0,0,2,.6,5.2,5.2,0,0,0,2.6-.7,4.1,4.1,0,0,0,1.7-1.6,5.5,5.5,0,0,0,.5-2.5Z" transform="translate(-1151 -291)"/><path class="cls-2" d="M1215.5,299.8h7.8V303a10.8,10.8,0,0,1,3.4-2.8,9.3,9.3,0,0,1,4.1-.8,7.9,7.9,0,0,1,4.1.9,6.8,6.8,0,0,1,2.5,2.7,12.5,12.5,0,0,1,3.6-2.9,9.2,9.2,0,0,1,4-.8,7.1,7.1,0,0,1,5.4,2.1q2,2.1,2,6.5v13.6H1244V309.1a3.4,3.4,0,0,0-.6-2.2,2.5,2.5,0,0,0-2.1-1.1,2.9,2.9,0,0,0-2.4,1.1,5.2,5.2,0,0,0-.9,3.4v11.2h-8.3V309.5a7.5,7.5,0,0,0-.2-1.9,2.7,2.7,0,0,0-.9-1.3,2.5,2.5,0,0,0-1.5-.5,2.9,2.9,0,0,0-2.4,1.1,5.5,5.5,0,0,0-.9,3.5v11.1h-8.3Z" transform="translate(-1151 -291)"/><path class="cls-2" d="M1257.6,291.6h8.3v5.7h-8.3Zm0,8.2h8.3v21.7h-8.3Z" transform="translate(-1151 -291)"/><path class="cls-2" d="M1271.2,291.6h8.4v10.4a8.2,8.2,0,0,1,2.8-2,9.1,9.1,0,0,1,3.5-.7,8.5,8.5,0,0,1,6.5,2.8q2.6,2.8,2.6,8.2a15.5,15.5,0,0,1-1.2,6.3,8.8,8.8,0,0,1-3.3,4,8.4,8.4,0,0,1-4.6,1.3,8.6,8.6,0,0,1-4-.9,10.5,10.5,0,0,1-3-2.8v3.2h-7.8Zm8.3,19a6.3,6.3,0,0,0,1,4.1,3.3,3.3,0,0,0,2.7,1.3,3.1,3.1,0,0,0,2.5-1.2,6.6,6.6,0,0,0,1-4.2,5.9,5.9,0,0,0-1-3.8,3,3,0,0,0-2.4-1.2,3.5,3.5,0,0,0-2.8,1.3,5.7,5.7,0,0,0-1.1,3.8" transform="translate(-1151 -291)"/><polygon class="cls-2" points="162.5 0.5 171.8 0.5 171.8 23.1 186.2 23.1 186.2 30.4 162.5 30.4 162.5 0.5"/><path class="cls-2" d="M1364.9,312.7h-16.6a5.4,5.4,0,0,0,1.1,3,3.9,3.9,0,0,0,3.1,1.4,4.7,4.7,0,0,0,2.3-.6,5.5,5.5,0,0,0,1.4-1.4l8.2.8a11.7,11.7,0,0,1-4.5,4.7,16.5,16.5,0,0,1-7.6,1.4,15.6,15.6,0,0,1-6.8-1.2,9.9,9.9,0,0,1-4.1-3.9,11.6,11.6,0,0,1-1.6-6.2,10.9,10.9,0,0,1,3.3-8.2q3.3-3.1,9-3.1a16,16,0,0,1,7.3,1.4,9.5,9.5,0,0,1,4.1,4.1,14.9,14.9,0,0,1,1.4,7Zm-8.4-4a5.6,5.6,0,0,0-1.3-3.4,4.1,4.1,0,0,0-5.9.5,5.8,5.8,0,0,0-1,2.9Z" transform="translate(-1151 -291)"/><path class="cls-2" d="M1376.3,306.8l-7.9-.8a8.9,8.9,0,0,1,1.3-3.3,7.1,7.1,0,0,1,2.4-2.1,10.2,10.2,0,0,1,3.1-1,25.4,25.4,0,0,1,4.3-.3,34.5,34.5,0,0,1,6,.4,7.7,7.7,0,0,1,3.8,1.7,6.1,6.1,0,0,1,1.7,2.6,9.4,9.4,0,0,1,.6,3.2v9.6a11.5,11.5,0,0,0,.2,2.4,10.7,10.7,0,0,0,.8,2.2h-7.8l-.6-1.3a9.6,9.6,0,0,1-.3-1.4,10.7,10.7,0,0,1-3.2,2.2,13.5,13.5,0,0,1-5.1.9,8.6,8.6,0,0,1-5.9-1.8,5.7,5.7,0,0,1-2-4.4,5.8,5.8,0,0,1,1.4-4.1q1.4-1.6,5.3-2.4l6.1-1.3,2.9-1a2.9,2.9,0,0,0-.6-2.1,3.2,3.2,0,0,0-2.2-.6,5.8,5.8,0,0,0-3.1.7,3.6,3.6,0,0,0-1.3,1.9m7.2,4.4-3.6,1.1a8.3,8.3,0,0,0-3.2,1.3,2.1,2.1,0,0,0,0,3.1,2.9,2.9,0,0,0,2,.6,5.2,5.2,0,0,0,2.6-.7,4.1,4.1,0,0,0,1.7-1.6,5.5,5.5,0,0,0,.5-2.5Z" transform="translate(-1151 -291)"/><path class="cls-2" d="M1419.4,291.6v29.9h-7.8v-3.2a10.5,10.5,0,0,1-3,2.8,8.5,8.5,0,0,1-4,.9,7.7,7.7,0,0,1-6.8-3.4,14,14,0,0,1-2.3-8.2q0-5.4,2.6-8.2a8.4,8.4,0,0,1,6.6-2.9,9.1,9.1,0,0,1,3.5.7,8,8,0,0,1,2.8,2V291.6Zm-8.3,19a5.7,5.7,0,0,0-1.1-3.8,3.5,3.5,0,0,0-2.7-1.3,3,3,0,0,0-2.4,1.2,6.5,6.5,0,0,0-1,4,6.1,6.1,0,0,0,1,3.9,3.1,3.1,0,0,0,2.5,1.2,3.3,3.3,0,0,0,2.7-1.2,6.2,6.2,0,0,0,1.1-4.1" transform="translate(-1151 -291)"/><path class="cls-2" d="M1462.5,306.9l6.5,1.4a23.7,23.7,0,0,1-1,2.9,24.8,24.8,0,0,1-1.3,2.6l3.1,2.1,1.5.9-4.5,5.1-2.5-1.5-2.4-1.5a16.6,16.6,0,0,1-4.3,2.1,23.7,23.7,0,0,1-6.8.9q-6,0-8.9-2.5a7.7,7.7,0,0,1-2.9-6,7.9,7.9,0,0,1,1.7-4.8,12.8,12.8,0,0,1,5.6-3.8,14.7,14.7,0,0,1-2.2-3.4,7.6,7.6,0,0,1-.6-3,6.6,6.6,0,0,1,2.4-5.2q2.4-2.1,7.4-2.1t7.4,2a5.9,5.9,0,0,1,2.4,4.7,6.3,6.3,0,0,1-.7,2.9,7.5,7.5,0,0,1-1.7,2.3l-3.7,2.6a53.1,53.1,0,0,0,4.5,4.1,18.6,18.6,0,0,0,1.1-2.7m-12.5,2a8.9,8.9,0,0,0-2.3,2.1,3.3,3.3,0,0,0-.6,1.8,3.5,3.5,0,0,0,1.3,2.7,4.8,4.8,0,0,0,3.3,1.2,9.7,9.7,0,0,0,5-1.7q-2.7-2-6.8-6m3-7.3a8.7,8.7,0,0,0,2.5-1.9,3.1,3.1,0,0,0,.9-1.9,2.1,2.1,0,0,0-.7-1.6,3.3,3.3,0,0,0-4.1.1,2.3,2.3,0,0,0-.8,1.7q0,1.3,2.2,3.7" transform="translate(-1151 -291)"/><polygon class="cls-2" points="1.6 38.8 27.8 38.8 27.8 44.8 11 62.3 28.4 62.3 28.4 68.7 0 68.7 0 62.5 16.6 45.2 1.6 45.2 1.6 38.8"/><path class="cls-2" d="M1183.3,329.9h8.3v5.7h-8.3Zm0,8.2h8.3v21.7h-8.3Z" transform="translate(-1151 -291)"/><path class="cls-2" d="M1196.9,338.1h7.7v3.5a11.5,11.5,0,0,1,3.5-3.1,9.2,9.2,0,0,1,4.3-.9,7.1,7.1,0,0,1,5.4,2.1q1.9,2,1.9,6.3v13.8h-8.3V347.8a4.3,4.3,0,0,0-.8-2.9,2.7,2.7,0,0,0-2.1-.8,3,3,0,0,0-2.4,1.1q-.9,1.1-.9,4.1v10.4h-8.3Z" transform="translate(-1151 -291)"/><path class="cls-2" d="M1240.9,351.3l7.9.9a11.1,11.1,0,0,1-2.1,4.3,10,10,0,0,1-3.8,2.8,14.9,14.9,0,0,1-5.9,1,21.7,21.7,0,0,1-5.7-.6,10,10,0,0,1-3.9-2.1,10.5,10.5,0,0,1-2.6-3.4,11.9,11.9,0,0,1-.9-5.1,12.1,12.1,0,0,1,1.1-5.6,10.1,10.1,0,0,1,2.3-2.9,10.6,10.6,0,0,1,3-1.9,16.5,16.5,0,0,1,6.2-1q5.3,0,8.1,1.9a10,10,0,0,1,3.9,5.5l-7.8,1a3.6,3.6,0,0,0-1.3-2.1,4.3,4.3,0,0,0-2.6-.7,4.2,4.2,0,0,0-3.3,1.5,6.7,6.7,0,0,0-1.3,4.5,5.8,5.8,0,0,0,1.3,4.1,4.2,4.2,0,0,0,3.2,1.4,4.4,4.4,0,0,0,2.7-.8,5,5,0,0,0,1.7-2.6" transform="translate(-1151 -291)"/><polygon class="cls-3" points="0 81.8 8.2 81.8 11.4 94.1 14.5 81.8 22.7 81.8 22.7 102 17.6 102 17.6 86.5 13.7 102 9 102 5.1 86.5 5.1 102 0 102 0 81.8"/><path class="cls-3" d="M1177.6,372.8h5.6v3.8h-5.6Zm0,5.6h5.6V393h-5.6Z" transform="translate(-1151 -291)"/><path class="cls-3" d="M1186.8,378.4h5.2v2.4a7.8,7.8,0,0,1,2.4-2.1,6.2,6.2,0,0,1,2.9-.6,4.8,4.8,0,0,1,3.6,1.4,6,6,0,0,1,1.3,4.3V393h-5.6V385a2.9,2.9,0,0,0-.5-2,1.8,1.8,0,0,0-1.4-.6,2,2,0,0,0-1.7.8,4.5,4.5,0,0,0-.6,2.8v7h-5.6Z" transform="translate(-1151 -291)"/><path class="cls-3" d="M1205.8,372.8h5.6v3.8h-5.6Zm0,5.6h5.6V393h-5.6Z" transform="translate(-1151 -291)"/><path class="cls-3" d="M1215,378.4h5.2v2.4a7.7,7.7,0,0,1,2.4-2.1,6.2,6.2,0,0,1,2.9-.6,4.8,4.8,0,0,1,3.6,1.4,6,6,0,0,1,1.3,4.3V393h-5.6V385a2.9,2.9,0,0,0-.5-2,1.8,1.8,0,0,0-1.4-.6,2,2,0,0,0-1.7.8,4.5,4.5,0,0,0-.6,2.8v7H1215Z" transform="translate(-1151 -291)"/><path class="cls-3" d="M1244,378.4h5.3v14.5a6.1,6.1,0,0,1-.6,2.6,5.5,5.5,0,0,1-1.6,2,6.1,6.1,0,0,1-2.5,1.1,15.2,15.2,0,0,1-3.4.3q-4.4,0-6.1-1.3a4.3,4.3,0,0,1-1.6-3.5c0-.2,0-.4,0-.7l5.4.6a1.8,1.8,0,0,0,.6,1,2.7,2.7,0,0,0,1.6.4,2.4,2.4,0,0,0,1.8-.7,3.3,3.3,0,0,0,.6-2.3v-2.2a5.5,5.5,0,0,1-4.5,2.1,5.6,5.6,0,0,1-4.7-2.6,8.2,8.2,0,0,1-1.3-4.8,7.4,7.4,0,0,1,1.7-5.2,5.6,5.6,0,0,1,4.3-1.8,6.1,6.1,0,0,1,2.8.6,6.2,6.2,0,0,1,2.1,1.9Zm-5.3,7.1a3.5,3.5,0,0,0,.7,2.3,2.4,2.4,0,0,0,3.5,0,3.5,3.5,0,0,0,.7-2.4,3.6,3.6,0,0,0-.7-2.4,2.3,2.3,0,0,0-1.8-.8,2.1,2.1,0,0,0-1.7.8,4.1,4.1,0,0,0-.6,2.6" transform="translate(-1151 -291)"/></svg>