<svg id="Layer_1" data-name="Layer 1" xmlns="http://www.w3.org/2000/svg" xmlns:xlink="http://www.w3.org/1999/xlink" viewBox="0 0 226.4 66.1"><defs><style>.cls-1{fill:none;}.cls-2{opacity:0.5;}.cls-3{clip-path:url(#clip-path);}.cls-4{fill:#fff;}</style><clipPath id="clip-path" transform="translate(-1204.7 -312.3)"><rect class="cls-1" x="1204.7" y="312.3" width="226.4" height="66.13"/></clipPath></defs><title>Untitled-7</title><g class="cls-2"><g class="cls-3"><polygon class="cls-4" points="15.3 23.1 7.9 11.3 7.8 11.3 7.8 23.1 0.2 23.1 0.2 2.2 11.5 2.2 18.9 14 19 14 19 2.2 26.6 2.2 26.6 23.1 15.3 23.1"/><path class="cls-4" d="M1245.5,324c-2.1,0-2.8,1.4-2.8,3.5s1,3.6,3.1,3.6,2.8-1.3,2.8-3.4-1-3.7-3.1-3.7m-.1,11.9c-7.9,0-11.5-2.9-11.5-8s4.1-8.7,11.9-8.7,11.5,3,11.5,8.2-4,8.5-11.9,8.5" transform="translate(-1204.7 -312.3)"/><path class="cls-4" d="M1273.2,325.2l-2.1-.2a4.2,4.2,0,0,0-3,1.6v8.7h-8.5V319.7h6.6l.7,2c1.6-1.7,2.7-2.5,5-2.5h2Z" transform="translate(-1204.7 -312.3)"/><path class="cls-4" d="M1283.6,335.9c-3.8,0-6.4-1.3-6.4-4.9v-6.6h-2.5v-4.7h2.5l2-4.4h6.5v4.4h3.7v4.7h-3.7v4.1c0,1.9.2,2.6,2.2,2.6h1.5v4.3a26.2,26.2,0,0,1-5.8.5" transform="translate(-1204.7 -312.3)"/><path class="cls-4" d="M1305.2,335.4v-8.7c0-1.8-.5-2.5-1.9-2.5a4.1,4.1,0,0,0-2.8,1.2v10H1292V313h8.5v7.6a10.3,10.3,0,0,1,5.5-1.4c4.7,0,7.6,1.9,7.6,6.2v10Z" transform="translate(-1204.7 -312.3)"/><path class="cls-4" d="M1332.5,319.3H1330v4.1h1.5c2.3,0,3.6-.8,3.6-2.3s-.8-1.8-2.5-1.8m3.1,16-4.3-7.3H1330v7.3h-8.9V314.5h12.4c5.9,0,10.9,1.5,10.9,6,0,2.9-1.6,4.9-4.6,5.7l6,9.1Z" transform="translate(-1204.7 -312.3)"/><path class="cls-4" d="M1352.7,318.9c-2.8,0-4.7-1.3-4.7-3.3s1.9-3.3,4.7-3.3,4.7,1.3,4.7,3.3-1.9,3.3-4.7,3.3m-4.2,16.4v-11h-2.7v-4.7h11.1v15.7Z" transform="translate(-1204.7 -312.3)"/><path class="cls-4" d="M1374.7,335.4h-10.4a65.8,65.8,0,0,1-6-15.7h8.7a59.4,59.4,0,0,0,2.9,9.6h0a55.5,55.5,0,0,0,2.4-9.6h8.3a87.2,87.2,0,0,1-6,15.7" transform="translate(-1204.7 -312.3)"/><path class="cls-4" d="M1392,323.3a2.2,2.2,0,0,0-2.4,2.4h4.7c.1-1.4-.3-2.4-2.3-2.4m10.4,6h-12.8c0,1.3,1.3,1.9,4,1.9a47.9,47.9,0,0,0,7.4-.6l.6,4.4a45.7,45.7,0,0,1-9.3.9c-7.7,0-11.4-2.4-11.4-8.1s4-8.7,11.4-8.7,10.1,2.3,10.1,7.8a20.8,20.8,0,0,1-.1,2.3" transform="translate(-1204.7 -312.3)"/><path class="cls-4" d="M1418.8,325.2l-2.1-.2a4.3,4.3,0,0,0-3,1.6v8.7h-8.5V319.7h6.5l.7,2c1.5-1.7,2.6-2.5,5-2.5h1.9Z" transform="translate(-1204.7 -312.3)"/><path class="cls-4" d="M1210.4,343.1h-1.3v2h.7c1.2,0,1.8-.4,1.8-1.1s-.4-.9-1.3-.9m1.5,7.9-2.1-3.6h-.7V351h-4.4V340.7h6.1c2.9,0,5.4.7,5.4,2.9a2.8,2.8,0,0,1-2.3,2.8l2.9,4.5Z" transform="translate(-1204.7 -312.3)"/><polygon class="cls-4" points="13 38.7 13 28.4 22.1 28.4 22.1 30.9 17.3 30.9 17.3 32.3 21.4 32.3 21.4 34.6 17.3 34.6 17.3 36.3 22.2 36.3 22.2 38.7 13 38.7"/><path class="cls-4" d="M1232.2,351.3a16.7,16.7,0,0,1-4.1-.4l.4-2.5a12.7,12.7,0,0,0,3.2.4c1.7,0,2-.2,2-.7s-.4-.6-2.1-1-3.6-1.3-3.6-3.2,2.6-3.4,5.6-3.4a14.4,14.4,0,0,1,3.9.5l-.6,2.4a11.6,11.6,0,0,0-3.1-.5c-.7,0-1.2.1-1.2.5s.4.6,1.5.9,4.2.9,4.2,3.2-2.8,3.8-6.2,3.8" transform="translate(-1204.7 -312.3)"/><path class="cls-4" d="M1246.4,343.1c-2.1,0-2.6,1.3-2.6,2.7s.6,3,2.6,3,2.6-1.2,2.6-2.8-.6-2.9-2.6-2.9m0,8.2c-4.5,0-7.1-1.3-7.1-5.4s2.6-5.4,7.2-5.4,7.1,1.4,7.1,5.3-2.5,5.5-7.2,5.5" transform="translate(-1204.7 -312.3)"/><path class="cls-4" d="M1261.3,351.3c-4.2,0-6.4-1.3-6.4-4.1v-6.5h4.4V347c0,1.2.9,1.7,2.1,1.7s2-.7,2-1.5v-6.4h4.3v6.4c0,2.5-2.1,4.1-6.4,4.1" transform="translate(-1204.7 -312.3)"/><path class="cls-4" d="M1275.3,343.1h-1.3v2h.7c1.1,0,1.8-.4,1.8-1.1s-.4-.9-1.3-.9m1.5,7.9-2.1-3.6h-.7V351h-4.4V340.7h6.1c2.9,0,5.4.7,5.4,2.9a2.8,2.8,0,0,1-2.2,2.8l2.9,4.5Z" transform="translate(-1204.7 -312.3)"/><path class="cls-4" d="M1289.1,351.3c-4.6,0-7.2-1.7-7.2-5.2s2.9-5.6,7-5.6a11,11,0,0,1,3.7.6l-1.2,2.4a6,6,0,0,0-2.2-.4,2.5,2.5,0,0,0-2.7,2.7c0,2.1,1.3,2.8,3,2.8a6.3,6.3,0,0,0,2.1-.4l1,2.4a11.9,11.9,0,0,1-3.6.6" transform="translate(-1204.7 -312.3)"/><polygon class="cls-4" points="89 38.7 89 28.4 98.2 28.4 98.2 30.9 93.4 30.9 93.4 32.3 97.4 32.3 97.4 34.6 93.4 34.6 93.4 36.3 98.2 36.3 98.2 38.7 89 38.7"/><path class="cls-4" d="M1308.3,351.3a16.7,16.7,0,0,1-4.1-.4l.4-2.5a12.7,12.7,0,0,0,3.2.4c1.7,0,2-.2,2-.7s-.4-.6-2.1-1-3.6-1.3-3.6-3.2,2.6-3.4,5.6-3.4a14.2,14.2,0,0,1,3.9.5l-.5,2.4a11.8,11.8,0,0,0-3.1-.5c-.7,0-1.2.1-1.2.5s.4.6,1.5.9,4.2.9,4.2,3.2-2.8,3.8-6.2,3.8" transform="translate(-1204.7 -312.3)"/><path class="cls-4" d="M1288,374a70.3,70.3,0,0,0,18.1,2.3,113.8,113.8,0,0,0,18.1-1.4,168.3,168.3,0,0,0,17.5-3.6,174.2,174.2,0,0,0,16.7-5.2,173.9,173.9,0,0,1,35.7-8.9c3.1-.4,6.3-.6,9.4-.8a79.9,79.9,0,0,1,9.5.1,68.5,68.5,0,0,1,9.3,1.3,75.7,75.7,0,0,1,8.7,2.5c-3-.6-6-1.2-9-1.5a78.4,78.4,0,0,0-9.1-.5c-3,0-6.1.2-9.1.5s-6,.8-8.9,1.3a164.5,164.5,0,0,0-17.3,4.1c-5.7,1.7-11.2,3.5-16.7,5.5a148.7,148.7,0,0,1-17.4,5.5,116.6,116.6,0,0,1-18.6,2.9,108.2,108.2,0,0,1-18.9-.2c-3.1-.3-6.2-.8-9.2-1.4l-4.4-1.1a33.2,33.2,0,0,1-4.2-1.4Z" transform="translate(-1204.7 -312.3)"/><path class="cls-4" d="M1280.5,368.5a71,71,0,0,0,18.1,2.3,116.2,116.2,0,0,0,18.1-1.4,166.5,166.5,0,0,0,17.4-3.6,175.1,175.1,0,0,0,16.8-5.2,173.5,173.5,0,0,1,35.7-8.9c3.1-.4,6.3-.7,9.4-.8a84,84,0,0,1,9.5.2,66.3,66.3,0,0,1,9.3,1.3,77.6,77.6,0,0,1,8.7,2.4h0c-3-.6-6-1.2-9-1.5a81.8,81.8,0,0,0-9.1-.5c-3,0-6.1.2-9.1.5s-6,.8-8.9,1.3a160.6,160.6,0,0,0-17.4,4.1c-5.6,1.7-11.2,3.5-16.7,5.5a150.4,150.4,0,0,1-17.4,5.5,117,117,0,0,1-18.6,2.9,109.7,109.7,0,0,1-18.9-.3,87.6,87.6,0,0,1-9.2-1.4l-4.4-1a31,31,0,0,1-4.3-1.4Z" transform="translate(-1204.7 -312.3)"/><path class="cls-4" d="M1273,363a70.9,70.9,0,0,0,18.1,2.3,113.7,113.7,0,0,0,18.1-1.4,170.4,170.4,0,0,0,17.5-3.6c5.7-1.5,11.3-3.2,16.8-5.2a172.1,172.1,0,0,1,35.6-8.9c3.1-.4,6.3-.7,9.4-.8a79.8,79.8,0,0,1,9.5.1,66.1,66.1,0,0,1,9.3,1.3,74.4,74.4,0,0,1,8.7,2.4c-3-.6-6-1.1-9-1.5a77.9,77.9,0,0,0-9.1-.5c-3,0-6.1.2-9.1.5s-6,.8-9,1.2a166.2,166.2,0,0,0-17.3,4.1c-5.7,1.7-11.2,3.5-16.7,5.6a153.9,153.9,0,0,1-17.4,5.4,117.3,117.3,0,0,1-18.6,2.9,108.1,108.1,0,0,1-18.9-.2,87.4,87.4,0,0,1-9.2-1.4l-4.5-1.1a29.1,29.1,0,0,1-4.2-1.4Z" transform="translate(-1204.7 -312.3)"/></g></g></svg>