<svg id="Layer_1" data-name="Layer 1" xmlns="http://www.w3.org/2000/svg" xmlns:xlink="http://www.w3.org/1999/xlink" viewBox="0 0 417.3 398.8"><defs><style>.cls-1{fill:url(#linear-gradient);}.cls-2{fill:url(#linear-gradient-2);}.cls-3{fill:url(#linear-gradient-3);}.cls-4{fill:url(#linear-gradient-4);}.cls-5{fill:url(#linear-gradient-5);}.cls-6{fill:url(#linear-gradient-6);}.cls-7{fill:url(#linear-gradient-7);}.cls-8{fill:url(#linear-gradient-8);}.cls-9{fill:url(#linear-gradient-9);}.cls-10{fill:url(#linear-gradient-10);}.cls-11{fill:url(#linear-gradient-11);}.cls-12{fill:url(#linear-gradient-12);}.cls-13{fill:url(#linear-gradient-13);}.cls-14{fill:url(#linear-gradient-14);}.cls-15{fill:url(#linear-gradient-15);}.cls-16{fill:url(#linear-gradient-16);}.cls-17{fill:url(#linear-gradient-17);}.cls-18{fill:url(#linear-gradient-18);}.cls-19{fill:none;}.cls-20{clip-path:url(#clip-path);}.cls-21{opacity:0.3;}.cls-22{clip-path:url(#clip-path-2);}.cls-23{mask:url(#mask);}.cls-24{fill:url(#linear-gradient-19);}.cls-25{clip-path:url(#clip-path-4);}.cls-26{mask:url(#mask-2);}.cls-27{fill:url(#linear-gradient-20);}.cls-28{clip-path:url(#clip-path-6);}.cls-29{clip-path:url(#clip-path-7);}.cls-30{mask:url(#mask-3);}.cls-31{fill:url(#linear-gradient-21);}.cls-32{clip-path:url(#clip-path-8);}.cls-33{clip-path:url(#clip-path-9);}.cls-34{mask:url(#mask-4);}.cls-35{fill:url(#linear-gradient-22);}.cls-36{clip-path:url(#clip-path-10);}.cls-37{mask:url(#mask-5);}.cls-38{fill:url(#linear-gradient-23);}.cls-39{clip-path:url(#clip-path-12);}.cls-40{mask:url(#mask-6);}.cls-41{fill:url(#linear-gradient-24);}.cls-42{font-size:12.72px;fill:#009ee0;font-family:Roboto-Bold, Roboto;font-weight:700;}.cls-43{letter-spacing:0.02em;}.cls-44{letter-spacing:0.02em;}.cls-45{letter-spacing:0.02em;}.cls-46{letter-spacing:0.02em;}.cls-47{letter-spacing:0.01em;}.cls-48,.cls-56,.cls-57,.cls-60,.cls-61,.cls-62,.cls-63{font-size:11.31px;}.cls-48,.cls-62,.cls-63{font-family:Roboto-Medium, Roboto;}.cls-49{letter-spacing:0.01em;}.cls-50{letter-spacing:0.01em;}.cls-51,.cls-61{letter-spacing:0.02em;}.cls-52,.cls-60,.cls-63{letter-spacing:0.02em;}.cls-53,.cls-57{letter-spacing:0.02em;}.cls-54{letter-spacing:0.02em;}.cls-55{letter-spacing:0.02em;}.cls-56,.cls-57,.cls-60,.cls-61,.cls-92{font-family:Roboto-Light, Roboto;}.cls-58{letter-spacing:0.01em;}.cls-59{letter-spacing:0em;}.cls-62{letter-spacing:-0.01em;}.cls-64{letter-spacing:0em;}.cls-65{clip-path:url(#clip-path-15);}.cls-66{clip-path:url(#clip-path-16);}.cls-67{mask:url(#mask-7);}.cls-68{fill:url(#linear-gradient-25);}.cls-69{clip-path:url(#clip-path-17);}.cls-70{clip-path:url(#clip-path-18);}.cls-71{mask:url(#mask-8);}.cls-72{fill:url(#linear-gradient-26);}.cls-73{clip-path:url(#clip-path-19);}.cls-74{clip-path:url(#clip-path-20);}.cls-75{mask:url(#mask-9);}.cls-76{fill:url(#linear-gradient-27);}.cls-77{clip-path:url(#clip-path-21);}.cls-78{clip-path:url(#clip-path-22);}.cls-79{mask:url(#mask-10);}.cls-80{fill:url(#linear-gradient-28);}.cls-81{clip-path:url(#clip-path-23);}.cls-82{clip-path:url(#clip-path-24);}.cls-83{mask:url(#mask-11);}.cls-84{fill:url(#linear-gradient-29);}.cls-85{clip-path:url(#clip-path-25);}.cls-86{clip-path:url(#clip-path-26);}.cls-87{mask:url(#mask-12);}.cls-88{fill:url(#linear-gradient-30);}.cls-89{letter-spacing:0.02em;}.cls-90{letter-spacing:0.03em;}.cls-91{letter-spacing:0.02em;}.cls-92{font-size:8.07px;letter-spacing:0.02em;}.cls-93{letter-spacing:-0.02em;}.cls-94{letter-spacing:0.02em;}.cls-95{letter-spacing:0.02em;}.cls-96{letter-spacing:0.02em;}.cls-97{letter-spacing:0.02em;}.cls-98{letter-spacing:0.02em;}.cls-99{letter-spacing:0.01em;}.cls-100{letter-spacing:0.02em;}.cls-101{letter-spacing:0.02em;}.cls-102{letter-spacing:0em;}.cls-103{letter-spacing:0.01em;}.cls-104{clip-path:url(#clip-path-28);}.cls-105{mask:url(#mask-13);}.cls-106{fill:url(#linear-gradient-31);}.cls-107{clip-path:url(#clip-path-30);}.cls-108{mask:url(#mask-14);}.cls-109{fill:url(#linear-gradient-32);}.cls-110{clip-path:url(#clip-path-32);}.cls-111{clip-path:url(#clip-path-33);}.cls-112{mask:url(#mask-15);}.cls-113{fill:url(#linear-gradient-33);}.cls-114{clip-path:url(#clip-path-34);}.cls-115{clip-path:url(#clip-path-35);}.cls-116{mask:url(#mask-16);}.cls-117{fill:url(#linear-gradient-34);}.cls-118{clip-path:url(#clip-path-36);}.cls-119{mask:url(#mask-17);}.cls-120{fill:url(#linear-gradient-35);}.cls-121{clip-path:url(#clip-path-38);}.cls-122{mask:url(#mask-18);}.cls-123{fill:url(#linear-gradient-36);}.cls-124{letter-spacing:-0.02em;}.cls-125{letter-spacing:-0.03em;}</style><linearGradient id="linear-gradient" x1="678" y1="1457.25" x2="679" y2="1457.25" gradientTransform="matrix(68.94, 0, 0, -68.94, -45202.96, 100731.81)" gradientUnits="userSpaceOnUse"><stop offset="0" stop-color="#b3b3b3"/><stop offset="0" stop-color="#b3b3b3"/><stop offset="0.14" stop-color="#c9c9c9"/><stop offset="0.32" stop-color="#e1e1e1"/><stop offset="0.52" stop-color="#f2f2f2"/><stop offset="0.73" stop-color="#fcfcfc"/><stop offset="0.99" stop-color="#fff"/><stop offset="1" stop-color="#fff"/></linearGradient><linearGradient id="linear-gradient-2" x1="678" y1="1459.74" x2="679" y2="1459.74" gradientTransform="matrix(51.34, 0, 0, -51.34, -33200.11, 75209.42)" xlink:href="#linear-gradient"/><linearGradient id="linear-gradient-3" x1="678" y1="1455.37" x2="679" y2="1455.37" gradientTransform="matrix(93.14, 0, 0, -93.14, -61796.2, 136068.98)" xlink:href="#linear-gradient"/><linearGradient id="linear-gradient-4" x1="678" y1="1455.5" x2="679" y2="1455.5" gradientTransform="matrix(90.94, 0, 0, -90.94, -60211.32, 132878.68)" xlink:href="#linear-gradient"/><linearGradient id="linear-gradient-5" x1="678" y1="1457.25" x2="679" y2="1457.25" gradientTransform="matrix(68.94, 0, 0, -68.94, -45202.96, 100859.42)" xlink:href="#linear-gradient"/><linearGradient id="linear-gradient-6" x1="678" y1="1459.74" x2="679" y2="1459.74" gradientTransform="matrix(51.34, 0, 0, -51.34, -33200.11, 75337.03)" xlink:href="#linear-gradient"/><linearGradient id="linear-gradient-7" x1="678" y1="1459.74" x2="679" y2="1459.74" gradientTransform="matrix(51.34, 0, 0, -51.34, -33148.77, 75337.03)" xlink:href="#linear-gradient"/><linearGradient id="linear-gradient-8" x1="678" y1="1458.11" x2="679" y2="1458.11" gradientTransform="matrix(61.61, 0, 0, -61.61, -40058.89, 90225.11)" xlink:href="#linear-gradient"/><linearGradient id="linear-gradient-9" x1="678" y1="1455.37" x2="679" y2="1455.37" gradientTransform="matrix(93.14, 0, 0, -93.14, -61796.2, 135952.73)" xlink:href="#linear-gradient"/><linearGradient id="linear-gradient-10" x1="678" y1="1455.5" x2="679" y2="1455.5" gradientTransform="matrix(90.94, 0, 0, -90.94, -60211.32, 132762.44)" xlink:href="#linear-gradient"/><linearGradient id="linear-gradient-11" x1="678" y1="1459.74" x2="679" y2="1459.74" gradientTransform="matrix(51.34, 0, 0, -51.34, -33148.77, 75209.42)" xlink:href="#linear-gradient"/><linearGradient id="linear-gradient-12" x1="678" y1="1458.11" x2="679" y2="1458.11" gradientTransform="matrix(61.61, 0, 0, -61.61, -40058.89, 90097.5)" xlink:href="#linear-gradient"/><linearGradient id="linear-gradient-13" x1="678" y1="1455.37" x2="679" y2="1455.37" gradientTransform="matrix(93.14, 0, 0, -93.14, -61796.2, 135825.12)" xlink:href="#linear-gradient"/><linearGradient id="linear-gradient-14" x1="678" y1="1455.5" x2="679" y2="1455.5" gradientTransform="matrix(90.94, 0, 0, -90.94, -60211.32, 132634.83)" xlink:href="#linear-gradient"/><linearGradient id="linear-gradient-15" x1="678" y1="1457.25" x2="679" y2="1457.25" gradientTransform="matrix(68.94, 0, 0, -68.94, -45202.96, 100975.66)" xlink:href="#linear-gradient"/><linearGradient id="linear-gradient-16" x1="678" y1="1459.74" x2="679" y2="1459.74" gradientTransform="matrix(51.34, 0, 0, -51.34, -33200.11, 75453.28)" xlink:href="#linear-gradient"/><linearGradient id="linear-gradient-17" x1="678" y1="1459.74" x2="679" y2="1459.74" gradientTransform="matrix(51.34, 0, 0, -51.34, -33148.77, 75453.28)" xlink:href="#linear-gradient"/><linearGradient id="linear-gradient-18" x1="678" y1="1458.11" x2="679" y2="1458.11" gradientTransform="matrix(61.61, 0, 0, -61.61, -40058.89, 90341.36)" xlink:href="#linear-gradient"/><clipPath id="clip-path" transform="translate(-1354.1 -175.2)"><rect class="cls-19" x="678" y="-1259" width="1280" height="2209.2"/></clipPath><clipPath id="clip-path-2" transform="translate(-1354.1 -175.2)"><rect class="cls-19" x="1538.2" y="227.1" width="68.9" height="84.34"/></clipPath><mask id="mask" x="184.08" y="51.95" width="68.94" height="84.34" maskUnits="userSpaceOnUse"><g transform="translate(-1354.1 -175.2)"><rect class="cls-1" x="1538.2" y="227.1" width="68.9" height="84.34"/></g></mask><linearGradient id="linear-gradient-19" x1="678" y1="1457.25" x2="679" y2="1457.25" gradientTransform="matrix(68.94, 0, 0, -68.94, -46557.11, 100556.66)" gradientUnits="userSpaceOnUse"><stop offset="0" stop-color="#231f20"/><stop offset="0" stop-color="#231f20"/><stop offset="0.99" stop-color="#231f20"/><stop offset="1" stop-color="#231f20"/></linearGradient><clipPath id="clip-path-4" transform="translate(-1354.1 -175.2)"><rect class="cls-19" x="1607.2" y="227.1" width="51.3" height="84.34"/></clipPath><mask id="mask-2" x="253.02" y="51.95" width="51.34" height="84.34" maskUnits="userSpaceOnUse"><g transform="translate(-1354.1 -175.2)"><rect class="cls-2" x="1607.2" y="227.1" width="51.3" height="84.34"/></g></mask><linearGradient id="linear-gradient-20" x1="678" y1="1459.74" x2="679" y2="1459.74" gradientTransform="matrix(51.34, 0, 0, -51.34, -34554.25, 75034.27)" xlink:href="#linear-gradient-19"/><clipPath id="clip-path-6" transform="translate(-1354.1 -175.2)"><rect class="cls-19" x="1658.5" y="227.1" width="51.3" height="84.34"/></clipPath><clipPath id="clip-path-7" transform="translate(-1354.1 -175.2)"><rect class="cls-19" x="1658.5" y="227.1" width="51.3" height="84.34"/></clipPath><mask id="mask-3" x="304.36" y="51.95" width="51.34" height="84.34" maskUnits="userSpaceOnUse"><g transform="translate(-1354.1 -175.2)"><rect class="cls-11" x="1658.5" y="227.1" width="51.3" height="84.34"/></g></mask><linearGradient id="linear-gradient-21" x1="678" y1="1459.74" x2="679" y2="1459.74" gradientTransform="matrix(51.34, 0, 0, -51.34, -34502.91, 75034.27)" xlink:href="#linear-gradient-19"/><clipPath id="clip-path-8" transform="translate(-1354.1 -175.2)"><rect class="cls-19" x="1709.8" y="227.1" width="61.6" height="84.34"/></clipPath><clipPath id="clip-path-9" transform="translate(-1354.1 -175.2)"><rect class="cls-19" x="1709.8" y="227.1" width="61.6" height="84.34"/></clipPath><mask id="mask-4" x="355.7" y="51.95" width="61.61" height="84.34" maskUnits="userSpaceOnUse"><g transform="translate(-1354.1 -175.2)"><rect class="cls-12" x="1709.8" y="227.1" width="61.6" height="84.34"/></g></mask><linearGradient id="linear-gradient-22" x1="678" y1="1458.11" x2="679" y2="1458.11" gradientTransform="matrix(61.61, 0, 0, -61.61, -41413.03, 89922.33)" xlink:href="#linear-gradient-19"/><clipPath id="clip-path-10" transform="translate(-1354.1 -175.2)"><rect class="cls-19" x="1354.1" y="227.1" width="93.1" height="84.34"/></clipPath><mask id="mask-5" x="0" y="51.95" width="93.14" height="84.34" maskUnits="userSpaceOnUse"><g transform="translate(-1354.1 -175.2)"><rect class="cls-13" x="1354.1" y="227.1" width="93.1" height="84.34"/></g></mask><linearGradient id="linear-gradient-23" x1="678" y1="1455.37" x2="679" y2="1455.37" gradientTransform="matrix(93.14, 0, 0, -93.14, -63150.34, 135649.96)" xlink:href="#linear-gradient-19"/><clipPath id="clip-path-12" transform="translate(-1354.1 -175.2)"><rect class="cls-19" x="1447.3" y="227.1" width="90.9" height="84.34"/></clipPath><mask id="mask-6" x="93.14" y="51.95" width="90.94" height="84.34" maskUnits="userSpaceOnUse"><g transform="translate(-1354.1 -175.2)"><rect class="cls-14" x="1447.3" y="227.1" width="90.9" height="84.34"/></g></mask><linearGradient id="linear-gradient-24" x1="678" y1="1455.5" x2="679" y2="1455.5" gradientTransform="matrix(90.94, 0, 0, -90.94, -61565.46, 132459.67)" xlink:href="#linear-gradient-19"/><clipPath id="clip-path-15" transform="translate(-1354.1 -175.2)"><rect class="cls-19" x="1538.2" y="481.6" width="68.9" height="63.07"/></clipPath><clipPath id="clip-path-16" transform="translate(-1354.1 -175.2)"><rect class="cls-19" x="1538.2" y="481.6" width="68.9" height="63.07"/></clipPath><mask id="mask-7" x="184.08" y="306.44" width="68.94" height="63.07" maskUnits="userSpaceOnUse"><g transform="translate(-1354.1 -175.2)"><rect class="cls-15" x="1538.2" y="481.6" width="68.9" height="63.07"/></g></mask><linearGradient id="linear-gradient-25" x1="678" y1="1457.25" x2="679" y2="1457.25" gradientTransform="matrix(68.94, 0, 0, -68.94, -46557.11, 100800.52)" xlink:href="#linear-gradient-19"/><clipPath id="clip-path-17" transform="translate(-1354.1 -175.2)"><rect class="cls-19" x="1607.2" y="481.6" width="51.3" height="63.07"/></clipPath><clipPath id="clip-path-18" transform="translate(-1354.1 -175.2)"><rect class="cls-19" x="1607.2" y="481.6" width="51.3" height="63.07"/></clipPath><mask id="mask-8" x="253.02" y="306.44" width="51.34" height="63.07" maskUnits="userSpaceOnUse"><g transform="translate(-1354.1 -175.2)"><rect class="cls-16" x="1607.2" y="481.6" width="51.3" height="63.07"/></g></mask><linearGradient id="linear-gradient-26" x1="678" y1="1459.74" x2="679" y2="1459.74" gradientTransform="matrix(51.34, 0, 0, -51.34, -34554.25, 75278.12)" xlink:href="#linear-gradient-19"/><clipPath id="clip-path-19" transform="translate(-1354.1 -175.2)"><rect class="cls-19" x="1658.5" y="481.6" width="51.3" height="63.07"/></clipPath><clipPath id="clip-path-20" transform="translate(-1354.1 -175.2)"><rect class="cls-19" x="1658.5" y="481.6" width="51.3" height="63.07"/></clipPath><mask id="mask-9" x="304.36" y="306.44" width="51.34" height="63.07" maskUnits="userSpaceOnUse"><g transform="translate(-1354.1 -175.2)"><rect class="cls-17" x="1658.5" y="481.6" width="51.3" height="63.07"/></g></mask><linearGradient id="linear-gradient-27" x1="678" y1="1459.74" x2="679" y2="1459.74" gradientTransform="matrix(51.34, 0, 0, -51.34, -34502.91, 75278.12)" xlink:href="#linear-gradient-19"/><clipPath id="clip-path-21" transform="translate(-1354.1 -175.2)"><rect class="cls-19" x="1709.8" y="481.6" width="61.6" height="63.07"/></clipPath><clipPath id="clip-path-22" transform="translate(-1354.1 -175.2)"><rect class="cls-19" x="1709.8" y="481.6" width="61.6" height="63.07"/></clipPath><mask id="mask-10" x="355.7" y="306.44" width="61.61" height="63.07" maskUnits="userSpaceOnUse"><g transform="translate(-1354.1 -175.2)"><rect class="cls-18" x="1709.8" y="481.6" width="61.6" height="63.07"/></g></mask><linearGradient id="linear-gradient-28" x1="678" y1="1458.11" x2="679" y2="1458.11" gradientTransform="matrix(61.61, 0, 0, -61.61, -41413.03, 90166.19)" xlink:href="#linear-gradient-19"/><clipPath id="clip-path-23" transform="translate(-1354.1 -175.2)"><rect class="cls-19" x="1354.1" y="481.6" width="93.1" height="63.07"/></clipPath><clipPath id="clip-path-24" transform="translate(-1354.1 -175.2)"><rect class="cls-19" x="1354.1" y="481.6" width="93.1" height="63.07"/></clipPath><mask id="mask-11" x="0" y="306.44" width="93.14" height="63.07" maskUnits="userSpaceOnUse"><g transform="translate(-1354.1 -175.2)"><rect class="cls-3" x="1354.1" y="481.6" width="93.1" height="63.07"/></g></mask><linearGradient id="linear-gradient-29" x1="678" y1="1455.37" x2="679" y2="1455.37" gradientTransform="matrix(93.14, 0, 0, -93.14, -63150.34, 135893.82)" xlink:href="#linear-gradient-19"/><clipPath id="clip-path-25" transform="translate(-1354.1 -175.2)"><rect class="cls-19" x="1447.3" y="481.6" width="90.9" height="63.07"/></clipPath><clipPath id="clip-path-26" transform="translate(-1354.1 -175.2)"><rect class="cls-19" x="1447.3" y="481.6" width="90.9" height="63.07"/></clipPath><mask id="mask-12" x="93.14" y="306.44" width="90.94" height="63.07" maskUnits="userSpaceOnUse"><g transform="translate(-1354.1 -175.2)"><rect class="cls-4" x="1447.3" y="481.6" width="90.9" height="63.07"/></g></mask><linearGradient id="linear-gradient-30" x1="678" y1="1455.5" x2="679" y2="1455.5" gradientTransform="matrix(90.94, 0, 0, -90.94, -61565.46, 132703.53)" xlink:href="#linear-gradient-19"/><clipPath id="clip-path-28" transform="translate(-1354.1 -175.2)"><rect class="cls-19" x="1538.2" y="354.7" width="68.9" height="84.34"/></clipPath><mask id="mask-13" x="184.08" y="179.56" width="68.94" height="84.34" maskUnits="userSpaceOnUse"><g transform="translate(-1354.1 -175.2)"><rect class="cls-5" x="1538.2" y="354.7" width="68.9" height="84.34"/></g></mask><linearGradient id="linear-gradient-31" x1="678" y1="1457.25" x2="679" y2="1457.25" gradientTransform="matrix(68.94, 0, 0, -68.94, -46557.11, 100684.27)" xlink:href="#linear-gradient-19"/><clipPath id="clip-path-30" transform="translate(-1354.1 -175.2)"><rect class="cls-19" x="1607.2" y="354.7" width="51.3" height="84.34"/></clipPath><mask id="mask-14" x="253.02" y="179.56" width="51.34" height="84.34" maskUnits="userSpaceOnUse"><g transform="translate(-1354.1 -175.2)"><rect class="cls-6" x="1607.2" y="354.7" width="51.3" height="84.34"/></g></mask><linearGradient id="linear-gradient-32" x1="678" y1="1459.74" x2="679" y2="1459.74" gradientTransform="matrix(51.34, 0, 0, -51.34, -34554.25, 75161.88)" xlink:href="#linear-gradient-19"/><clipPath id="clip-path-32" transform="translate(-1354.1 -175.2)"><rect class="cls-19" x="1658.5" y="354.7" width="51.3" height="84.34"/></clipPath><clipPath id="clip-path-33" transform="translate(-1354.1 -175.2)"><rect class="cls-19" x="1658.5" y="354.7" width="51.3" height="84.34"/></clipPath><mask id="mask-15" x="304.36" y="179.56" width="51.34" height="84.34" maskUnits="userSpaceOnUse"><g transform="translate(-1354.1 -175.2)"><rect class="cls-7" x="1658.5" y="354.7" width="51.3" height="84.34"/></g></mask><linearGradient id="linear-gradient-33" x1="678" y1="1459.74" x2="679" y2="1459.74" gradientTransform="matrix(51.34, 0, 0, -51.34, -34502.91, 75161.88)" xlink:href="#linear-gradient-19"/><clipPath id="clip-path-34" transform="translate(-1354.1 -175.2)"><rect class="cls-19" x="1709.8" y="354.7" width="61.6" height="84.34"/></clipPath><clipPath id="clip-path-35" transform="translate(-1354.1 -175.2)"><rect class="cls-19" x="1709.8" y="354.7" width="61.6" height="84.34"/></clipPath><mask id="mask-16" x="355.7" y="179.56" width="61.61" height="84.34" maskUnits="userSpaceOnUse"><g transform="translate(-1354.1 -175.2)"><rect class="cls-8" x="1709.8" y="354.7" width="61.6" height="84.34"/></g></mask><linearGradient id="linear-gradient-34" x1="678" y1="1458.11" x2="679" y2="1458.11" gradientTransform="matrix(61.61, 0, 0, -61.61, -41413.03, 90049.94)" xlink:href="#linear-gradient-19"/><clipPath id="clip-path-36" transform="translate(-1354.1 -175.2)"><rect class="cls-19" x="1354.1" y="354.7" width="93.1" height="84.34"/></clipPath><mask id="mask-17" x="0" y="179.56" width="93.14" height="84.34" maskUnits="userSpaceOnUse"><g transform="translate(-1354.1 -175.2)"><rect class="cls-9" x="1354.1" y="354.7" width="93.1" height="84.34"/></g></mask><linearGradient id="linear-gradient-35" x1="678" y1="1455.37" x2="679" y2="1455.37" gradientTransform="matrix(93.14, 0, 0, -93.14, -63150.34, 135777.58)" xlink:href="#linear-gradient-19"/><clipPath id="clip-path-38" transform="translate(-1354.1 -175.2)"><rect class="cls-19" x="1447.3" y="354.7" width="90.9" height="84.34"/></clipPath><mask id="mask-18" x="93.14" y="179.56" width="90.94" height="84.34" maskUnits="userSpaceOnUse"><g transform="translate(-1354.1 -175.2)"><rect class="cls-10" x="1447.3" y="354.7" width="90.9" height="84.34"/></g></mask><linearGradient id="linear-gradient-36" x1="678" y1="1455.5" x2="679" y2="1455.5" gradientTransform="matrix(90.94, 0, 0, -90.94, -61565.46, 132587.28)" xlink:href="#linear-gradient-19"/></defs><title>opt-table</title><g class="cls-20"><g class="cls-21"><g class="cls-22"><g class="cls-22"><g class="cls-23"><rect class="cls-24" x="184.1" y="52" width="68.9" height="84.34"/></g></g></g></g><g class="cls-21"><g class="cls-25"><g class="cls-25"><g class="cls-26"><rect class="cls-27" x="253" y="52" width="51.3" height="84.34"/></g></g></g></g><g class="cls-21"><g class="cls-28"><g class="cls-29"><g class="cls-30"><rect class="cls-31" x="304.4" y="52" width="51.3" height="84.34"/></g></g></g></g><g class="cls-21"><g class="cls-32"><g class="cls-33"><g class="cls-34"><rect class="cls-35" x="355.7" y="52" width="61.6" height="84.34"/></g></g></g></g><g class="cls-21"><g class="cls-36"><g class="cls-36"><g class="cls-37"><rect class="cls-38" y="52" width="93.1" height="84.34"/></g></g></g></g><g class="cls-21"><g class="cls-39"><g class="cls-39"><g class="cls-40"><rect class="cls-41" x="93.1" y="52" width="90.9" height="84.34"/></g></g></g></g></g><text class="cls-42" transform="translate(11 10.9)"><tspan class="cls-43">J</tspan><tspan class="cls-44" x="7.6" y="0">O</tspan><tspan class="cls-45" x="16.5" y="0">RC Min</tspan><tspan class="cls-44" x="59.7" y="0">e</tspan><tspan class="cls-43" x="66.7" y="0">ral R</tspan><tspan class="cls-46" x="94.4" y="0">e</tspan><tspan class="cls-45" x="101.5" y="0">sou</tspan><tspan class="cls-47" x="123.3" y="0">r</tspan><tspan class="cls-44" x="127.9" y="0">c</tspan><tspan x="134.8" y="0">e</tspan></text><text class="cls-48" transform="translate(11 38)"><tspan class="cls-49">F</tspan><tspan class="cls-50" x="6.7" y="0">r</tspan><tspan class="cls-51" x="10.8" y="0">esh </tspan><tspan class="cls-52" x="32.9" y="0">O</tspan><tspan class="cls-50" x="40.9" y="0">r</tspan><tspan class="cls-53" x="44.9" y="0">e (tonnes </tspan><tspan class="cls-54" x="98" y="0">a</tspan><tspan class="cls-53" x="104.4" y="0">nd gr</tspan><tspan class="cls-54" x="131.7" y="0">a</tspan><tspan class="cls-53" x="138.1" y="0">de </tspan><tspan class="cls-52" x="154.1" y="0">a</tspan><tspan class="cls-53" x="160.5" y="0">t 1% </tspan><tspan class="cls-52" x="186.1" y="0">P</tspan><tspan class="cls-53" x="193.7" y="0">b+</tspan><tspan class="cls-52" x="206.9" y="0">Z</tspan><tspan class="cls-53" x="213.9" y="0">n cut-off gr</tspan><tspan class="cls-52" x="273.7" y="0">a</tspan><tspan class="cls-53" x="280.1" y="0">de</tspan><tspan x="293" y="0">)</tspan></text><text class="cls-48" transform="translate(11 74.7)"><tspan class="cls-52">C</tspan><tspan class="cls-53" x="7.5" y="0">l</tspan><tspan class="cls-52" x="10.7" y="0">a</tspan><tspan class="cls-55" x="17.1" y="0">ssiﬁc</tspan><tspan class="cls-54" x="45.6" y="0">a</tspan><tspan class="cls-53" x="52" y="0">tion</tspan><tspan x="72.7" y="0"> </tspan></text><text class="cls-56" transform="translate(11 96.7)"><tspan class="cls-53">I</tspan><tspan class="cls-54" x="3.3" y="0">nd</tspan><tspan class="cls-53" x="16.4" y="0">i</tspan><tspan class="cls-52" x="19.3" y="0">cate</tspan><tspan x="41.9" y="0">d</tspan></text><text class="cls-57" transform="translate(11 114.3)">I<tspan class="cls-54" x="3.3" y="0">n</tspan><tspan class="cls-58" x="9.9" y="0">f</tspan><tspan x="13.7" y="0">er</tspan><tspan class="cls-50" x="23.9" y="0">r</tspan><tspan class="cls-52" x="27.9" y="0">e</tspan><tspan class="cls-59" x="34" y="0">d</tspan></text><text class="cls-48" transform="translate(51.6 114.3)"> </text><text class="cls-60" transform="translate(104.1 96.7)">Unde<tspan class="cls-50" x="27.1" y="0">r</tspan><tspan x="31.1" y="0">g</tspan><tspan class="cls-50" x="37.7" y="0">r</tspan><tspan x="41.7" y="0">oun</tspan><tspan class="cls-59" x="61.4" y="0">d</tspan></text><text class="cls-60" transform="translate(104.1 114.3)">Unde<tspan class="cls-50" x="27.1" y="0">r</tspan><tspan x="31.1" y="0">g</tspan><tspan class="cls-50" x="37.7" y="0">r</tspan><tspan x="41.7" y="0">oun</tspan><tspan class="cls-59" x="61.4" y="0">d</tspan></text><text class="cls-61" transform="translate(193.6 96.7)">710,00<tspan class="cls-59" x="36" y="0">0</tspan></text><text class="cls-61" transform="translate(193.6 114.3)">409,00<tspan class="cls-59" x="36" y="0">0</tspan></text><text class="cls-56" transform="translate(262.6 96.7)"><tspan class="cls-51">2</tspan><tspan class="cls-52" x="6.5" y="0">.</tspan><tspan x="9.5" y="0">4</tspan></text><text class="cls-56" transform="translate(262.6 114.3)"><tspan class="cls-51">2</tspan><tspan class="cls-52" x="6.5" y="0">.</tspan><tspan x="9.5" y="0">2</tspan></text><text class="cls-56" transform="translate(313.9 96.7)"><tspan class="cls-51">7</tspan><tspan class="cls-52" x="6.5" y="0">.</tspan><tspan x="9.5" y="0">0</tspan></text><text class="cls-56" transform="translate(313.9 114.3)"><tspan class="cls-51">6</tspan><tspan class="cls-52" x="6.5" y="0">.</tspan><tspan x="9.5" y="0">0</tspan></text><text class="cls-61" transform="translate(365.2 96.7)">5<tspan class="cls-59" x="6.5" y="0">0</tspan></text><text class="cls-56" transform="translate(365.2 114.3)"><tspan class="cls-51">3</tspan><tspan x="6.5" y="0">8</tspan></text><text class="cls-48" transform="translate(104.1 74.7)"><tspan class="cls-52">A</tspan><tspan class="cls-50" x="7.6" y="0">r</tspan><tspan class="cls-53" x="11.6" y="0">e</tspan><tspan class="cls-52" x="17.9" y="0">a</tspan><tspan x="24.3" y="0"> </tspan></text><text class="cls-62" transform="translate(193.6 74.7)">T<tspan class="cls-53" x="6.4" y="0">onnes</tspan><tspan class="cls-59" x="38.8" y="0">*</tspan></text><text class="cls-48" transform="translate(262.6 74.7)"><tspan class="cls-52">P</tspan><tspan class="cls-53" x="7.6" y="0">b </tspan><tspan x="17.3" y="0">%</tspan></text><text class="cls-63" transform="translate(313.9 74.7)">Z<tspan class="cls-53" x="7" y="0">n </tspan><tspan class="cls-64" x="16.7" y="0">%</tspan></text><text class="cls-48" transform="translate(365.2 74.7)"><tspan class="cls-52">A</tspan><tspan class="cls-53" x="7.6" y="0">g (g</tspan><tspan class="cls-52" x="28.1" y="0">/</tspan><tspan class="cls-53" x="33" y="0">t</tspan><tspan x="37.2" y="0">)</tspan></text><g class="cls-20"><g class="cls-21"><g class="cls-65"><g class="cls-66"><g class="cls-67"><rect class="cls-68" x="184.1" y="306.4" width="68.9" height="63.07"/></g></g></g></g><g class="cls-21"><g class="cls-69"><g class="cls-70"><g class="cls-71"><rect class="cls-72" x="253" y="306.4" width="51.3" height="63.07"/></g></g></g></g><g class="cls-21"><g class="cls-73"><g class="cls-74"><g class="cls-75"><rect class="cls-76" x="304.4" y="306.4" width="51.3" height="63.07"/></g></g></g></g><g class="cls-21"><g class="cls-77"><g class="cls-78"><g class="cls-79"><rect class="cls-80" x="355.7" y="306.4" width="61.6" height="63.07"/></g></g></g></g><g class="cls-21"><g class="cls-81"><g class="cls-82"><g class="cls-83"><rect class="cls-84" y="306.4" width="93.1" height="63.07"/></g></g></g></g><g class="cls-21"><g class="cls-85"><g class="cls-86"><g class="cls-87"><rect class="cls-88" x="93.1" y="306.4" width="90.9" height="63.07"/></g></g></g></g></g><text class="cls-48" transform="translate(11 292.5)"><tspan class="cls-52">JO</tspan><tspan class="cls-55" x="14.6" y="0">R</tspan><tspan class="cls-89" x="22.3" y="0">C</tspan><tspan class="cls-53" x="29.8" y="0"> </tspan><tspan class="cls-52" x="32.9" y="0">O</tspan><tspan class="cls-50" x="40.9" y="0">r</tspan><tspan class="cls-53" x="44.9" y="0">e Rese</tspan><tspan class="cls-90" x="80.6" y="0">r</tspan><tspan class="cls-91" x="84.9" y="0">v</tspan><tspan x="90.8" y="0">e</tspan></text><text class="cls-92" transform="translate(11 396.7)">*<tspan class="cls-93" x="3.6" y="0">T</tspan><tspan x="8.2" y="0">o</tspan><tspan class="cls-94" x="12.9" y="0">n</tspan><tspan x="17.6" y="0">n</tspan><tspan class="cls-95" x="22.2" y="0">e</tspan><tspan x="26.6" y="0">s h</tspan><tspan class="cls-96" x="37.7" y="0">a</tspan><tspan class="cls-97" x="42.2" y="0">v</tspan><tspan class="cls-95" x="46.2" y="0">e</tspan><tspan x="50.6" y="0"> </tspan><tspan class="cls-95" x="52.7" y="0">been</tspan><tspan class="cls-98" x="70.8" y="0"> </tspan><tspan class="cls-99" x="73" y="0">r</tspan><tspan class="cls-100" x="75.8" y="0">o</tspan><tspan class="cls-94" x="80.5" y="0">un</tspan><tspan class="cls-100" x="89.9" y="0">d</tspan><tspan class="cls-101" x="94.5" y="0">ed</tspan><tspan x="103.6" y="0"> </tspan><tspan class="cls-95" x="105.7" y="0">to</tspan><tspan x="113.3" y="0"> </tspan><tspan class="cls-95" x="115.4" y="0">t</tspan><tspan x="118.3" y="0">h</tspan><tspan class="cls-95" x="123" y="0">e</tspan><tspan x="127.3" y="0" xml:space="preserve"> n</tspan><tspan class="cls-95" x="134.1" y="0">ea</tspan><tspan class="cls-99" x="143" y="0">r</tspan><tspan class="cls-95" x="145.9" y="0">e</tspan><tspan x="150.2" y="0">s</tspan><tspan class="cls-94" x="154.5" y="0">t</tspan><tspan class="cls-98" x="157.4" y="0" xml:space="preserve"> 1,000 </tspan><tspan class="cls-95" x="182.7" y="0">t</tspan><tspan class="cls-100" x="185.6" y="0">o</tspan><tspan class="cls-94" x="190.3" y="0">nne</tspan><tspan x="204" y="0">s </tspan><tspan class="cls-95" x="210.5" y="0">to</tspan><tspan x="218" y="0"> </tspan><tspan class="cls-99" x="220.2" y="0">r</tspan><tspan class="cls-95" x="223" y="0">e</tspan><tspan class="cls-98" x="227.4" y="0">fl</tspan><tspan class="cls-95" x="232.2" y="0">ect</tspan><tspan x="243.8" y="0"> </tspan><tspan class="cls-95" x="246" y="0">a</tspan><tspan x="250.5" y="0">n </tspan><tspan class="cls-95" x="257.3" y="0">e</tspan><tspan x="261.7" y="0">s</tspan><tspan class="cls-95" x="266" y="0">t</tspan><tspan x="268.8" y="0">im</tspan><tspan class="cls-95" x="278.2" y="0">at</tspan><tspan class="cls-102" x="285.6" y="0">e</tspan></text><text class="cls-48" transform="translate(11 329.2)"><tspan class="cls-52">C</tspan><tspan class="cls-53" x="7.5" y="0">l</tspan><tspan class="cls-52" x="10.7" y="0">a</tspan><tspan class="cls-55" x="17.1" y="0">ssiﬁc</tspan><tspan class="cls-54" x="45.6" y="0">a</tspan><tspan class="cls-53" x="52" y="0">tion</tspan><tspan x="72.7" y="0"> </tspan></text><text class="cls-56" transform="translate(11 351.2)"><tspan class="cls-52">P</tspan><tspan class="cls-103" x="7.3" y="0">r</tspan><tspan class="cls-54" x="11.3" y="0">obab</tspan><tspan class="cls-53" x="37.3" y="0">l</tspan><tspan x="40.1" y="0">e</tspan></text><text class="cls-60" transform="translate(104.1 351.2)">Unde<tspan class="cls-50" x="27.1" y="0">r</tspan><tspan x="31.1" y="0">g</tspan><tspan class="cls-50" x="37.7" y="0">r</tspan><tspan x="41.7" y="0">oun</tspan><tspan class="cls-59" x="61.4" y="0">d</tspan></text><text class="cls-56" transform="translate(193.6 351.2)"><tspan class="cls-51">611,00</tspan><tspan x="35.7" y="0">0</tspan></text><text class="cls-56" transform="translate(262.6 351.2)"><tspan class="cls-51">2</tspan><tspan class="cls-52" x="6.5" y="0">.</tspan><tspan x="9.5" y="0">3</tspan></text><text class="cls-56" transform="translate(313.9 351.2)"><tspan class="cls-51">6</tspan><tspan class="cls-52" x="6.5" y="0">.</tspan><tspan x="9.5" y="0">6</tspan></text><text class="cls-56" transform="translate(365.2 351.2)"><tspan class="cls-51">4</tspan><tspan x="6.5" y="0">9</tspan></text><text class="cls-48" transform="translate(104.1 329.2)"><tspan class="cls-52">A</tspan><tspan class="cls-50" x="7.6" y="0">r</tspan><tspan class="cls-53" x="11.6" y="0">e</tspan><tspan class="cls-52" x="17.9" y="0">a</tspan><tspan x="24.3" y="0"> </tspan></text><text class="cls-62" transform="translate(193.6 329.2)">T<tspan class="cls-53" x="6.4" y="0">onnes</tspan><tspan class="cls-59" x="38.8" y="0">*</tspan></text><text class="cls-48" transform="translate(262.6 329.2)"><tspan class="cls-52">P</tspan><tspan class="cls-53" x="7.6" y="0">b </tspan><tspan x="17.3" y="0">%</tspan></text><text class="cls-63" transform="translate(313.9 329.2)">Z<tspan class="cls-53" x="7" y="0">n </tspan><tspan class="cls-64" x="16.7" y="0">%</tspan></text><text class="cls-48" transform="translate(365.2 329.2)"><tspan class="cls-52">A</tspan><tspan class="cls-53" x="7.6" y="0">g (g</tspan><tspan class="cls-52" x="28.1" y="0">/</tspan><tspan class="cls-53" x="33" y="0">t</tspan><tspan x="37.2" y="0">)</tspan></text><g class="cls-20"><g class="cls-21"><g class="cls-104"><g class="cls-104"><g class="cls-105"><rect class="cls-106" x="184.1" y="179.6" width="68.9" height="84.34"/></g></g></g></g><g class="cls-21"><g class="cls-107"><g class="cls-107"><g class="cls-108"><rect class="cls-109" x="253" y="179.6" width="51.3" height="84.34"/></g></g></g></g><g class="cls-21"><g class="cls-110"><g class="cls-111"><g class="cls-112"><rect class="cls-113" x="304.4" y="179.6" width="51.3" height="84.34"/></g></g></g></g><g class="cls-21"><g class="cls-114"><g class="cls-115"><g class="cls-116"><rect class="cls-117" x="355.7" y="179.6" width="61.6" height="84.34"/></g></g></g></g><g class="cls-21"><g class="cls-118"><g class="cls-118"><g class="cls-119"><rect class="cls-120" y="179.6" width="93.1" height="84.34"/></g></g></g></g><g class="cls-21"><g class="cls-121"><g class="cls-121"><g class="cls-122"><rect class="cls-123" x="93.1" y="179.6" width="90.9" height="84.34"/></g></g></g></g></g><text class="cls-48" transform="translate(11 165.6)"><tspan class="cls-124">T</tspan><tspan class="cls-54" x="6.4" y="0">a</tspan><tspan class="cls-53" x="12.8" y="0">ilings (tonnes </tspan><tspan class="cls-54" x="88.6" y="0">a</tspan><tspan class="cls-53" x="95.1" y="0">nd gr</tspan><tspan class="cls-52" x="122.3" y="0">a</tspan><tspan class="cls-53" x="128.7" y="0">de </tspan><tspan class="cls-52" x="144.7" y="0">a</tspan><tspan class="cls-53" x="151.1" y="0">t 0% </tspan><tspan class="cls-52" x="176.7" y="0">P</tspan><tspan class="cls-53" x="184.3" y="0">b+</tspan><tspan class="cls-52" x="197.5" y="0">Z</tspan><tspan class="cls-53" x="204.5" y="0">n cut-off gr</tspan><tspan class="cls-52" x="264.3" y="0">a</tspan><tspan class="cls-55" x="270.7" y="0">de</tspan><tspan x="283.6" y="0">)</tspan></text><text class="cls-48" transform="translate(11 202.3)"><tspan class="cls-52">C</tspan><tspan class="cls-53" x="7.5" y="0">l</tspan><tspan class="cls-52" x="10.7" y="0">a</tspan><tspan class="cls-55" x="17.1" y="0">ssiﬁc</tspan><tspan class="cls-54" x="45.6" y="0">a</tspan><tspan class="cls-53" x="52" y="0">tion</tspan><tspan x="72.7" y="0"> </tspan></text><text class="cls-56" transform="translate(11 224.3)"><tspan class="cls-51">M</tspan><tspan class="cls-54" x="10.1" y="0">ea</tspan><tspan class="cls-51" x="22.5" y="0">s</tspan><tspan class="cls-54" x="28.5" y="0">u</tspan><tspan class="cls-50" x="35.1" y="0">r</tspan><tspan class="cls-52" x="39.1" y="0">e</tspan><tspan x="45.2" y="0">d</tspan></text><text class="cls-56" transform="translate(11 241.9)"><tspan class="cls-53">I</tspan><tspan class="cls-54" x="3.3" y="0">nd</tspan><tspan class="cls-53" x="16.4" y="0">i</tspan><tspan class="cls-52" x="19.3" y="0">cate</tspan><tspan x="41.9" y="0">d</tspan></text><text class="cls-56" transform="translate(104.1 224.3)"><tspan class="cls-125">T</tspan><tspan class="cls-52" x="6.3" y="0">a</tspan><tspan class="cls-53" x="12.7" y="0">ili</tspan><tspan class="cls-52" x="21.2" y="0">ng</tspan><tspan x="34.3" y="0">s</tspan></text><text class="cls-56" transform="translate(104.1 241.9)"><tspan class="cls-125">T</tspan><tspan class="cls-52" x="6.3" y="0">a</tspan><tspan class="cls-53" x="12.7" y="0">ili</tspan><tspan class="cls-52" x="21.2" y="0">ng</tspan><tspan x="34.3" y="0">s</tspan></text><text class="cls-61" transform="translate(193.6 224.3)">260,00<tspan class="cls-59" x="36" y="0">0</tspan></text><text class="cls-61" transform="translate(193.6 241.9)">350,00<tspan class="cls-59" x="36" y="0">0</tspan></text><text class="cls-57" transform="translate(262.6 224.3)">0<tspan class="cls-52" x="6.9" y="0">.</tspan><tspan class="cls-64" x="9.8" y="0">3</tspan></text><text class="cls-57" transform="translate(262.6 241.9)">0<tspan class="cls-52" x="6.9" y="0">.</tspan><tspan class="cls-64" x="9.8" y="0">3</tspan></text><text class="cls-56" transform="translate(313.9 224.3)"><tspan class="cls-51">2</tspan><tspan class="cls-52" x="6.5" y="0">.</tspan><tspan x="9.5" y="0">2</tspan></text><text class="cls-56" transform="translate(313.9 241.9)"><tspan class="cls-51">2</tspan><tspan class="cls-52" x="6.5" y="0">.</tspan><tspan x="9.5" y="0">1</tspan></text><text class="cls-56" transform="translate(365.2 224.3)"><tspan class="cls-51">7</tspan><tspan class="cls-52" x="6.5" y="0">.</tspan><tspan x="9.5" y="0">5</tspan></text><text class="cls-56" transform="translate(365.2 241.9)"><tspan class="cls-51">7</tspan><tspan class="cls-52" x="6.5" y="0">.</tspan><tspan x="9.5" y="0">7</tspan></text><text class="cls-48" transform="translate(104.1 202.3)"><tspan class="cls-52">A</tspan><tspan class="cls-50" x="7.6" y="0">r</tspan><tspan class="cls-53" x="11.6" y="0">e</tspan><tspan class="cls-52" x="17.9" y="0">a</tspan><tspan x="24.3" y="0"> </tspan></text><text class="cls-62" transform="translate(193.6 202.3)">T<tspan class="cls-53" x="6.4" y="0">onnes</tspan><tspan class="cls-59" x="38.8" y="0">*</tspan></text><text class="cls-48" transform="translate(262.6 202.3)"><tspan class="cls-52">P</tspan><tspan class="cls-53" x="7.6" y="0">b </tspan><tspan x="17.3" y="0">%</tspan></text><text class="cls-63" transform="translate(313.9 202.3)">Z<tspan class="cls-53" x="7" y="0">n </tspan><tspan class="cls-64" x="16.7" y="0">%</tspan></text><text class="cls-48" transform="translate(365.2 202.3)"><tspan class="cls-52">A</tspan><tspan class="cls-53" x="7.6" y="0">g (g</tspan><tspan class="cls-52" x="28.1" y="0">/</tspan><tspan class="cls-53" x="33" y="0">t</tspan><tspan x="37.2" y="0">)</tspan></text></svg>