<svg id="Layer_1" data-name="Layer 1" xmlns="http://www.w3.org/2000/svg" viewBox="0 0 35 142.4"><defs><style>.cls-1,.cls-4{fill:#009ee0;}.cls-2{fill:#fff;}.cls-3{fill:#231f20;}.cls-4{font-size:16.73px;font-family:Roboto-Bold, Roboto;font-weight:700;letter-spacing:-0.01em;}.cls-5{letter-spacing:0.02em;}.cls-6{letter-spacing:0.02em;}.cls-7{letter-spacing:0.02em;}.cls-8{letter-spacing:0em;}</style></defs><title>vacancies</title><path class="cls-1" d="M1330.7,406a3.8,3.8,0,0,0,3.7-3.7,3.7,3.7,0,0,0-3.7-3.7,3.7,3.7,0,0,0-3.7,3.7,3.7,3.7,0,0,0,3.7,3.7m0-6.1a2.3,2.3,0,1,1,0,4.7,2.3,2.3,0,1,1,0-4.7" transform="translate(-1317.5 -286.1)"/><path class="cls-1" d="M1344.5,416.6l-3.1-2.6a5.8,5.8,0,0,0-1.3-6.3,5.7,5.7,0,0,0-4.1-1.7h-9.6a1.9,1.9,0,0,0-1.9,1.9v5.7a1.9,1.9,0,0,0,1.9,1.9h.8v4.1a1.5,1.5,0,0,0,1.5,1.5h3.5a1.4,1.4,0,0,0,1.4-1.5v-2.7a5.8,5.8,0,0,0,4.5.1l2.6,3.1a2.6,2.6,0,0,0,3.9.2,2.7,2.7,0,0,0-.2-3.9m-12.2,3.3c0,.1,0,.1-.1.1h-3.6v-8.3a.7.7,0,1,0-1.3,0v2.8h-.9a.6.6,0,0,1-.6-.6v-5.7a.6.6,0,0,1,.6-.6h5.6l-.2.2a5.8,5.8,0,0,0,0,8.2l.5.4Zm3.7-3.5a4.5,4.5,0,0,1-3.1-1.3,4.5,4.5,0,0,1,0-6.3,4.4,4.4,0,0,1,6.3,0,4.5,4.5,0,0,1,0,6.3,4.3,4.3,0,0,1-3.1,1.3m7.8,3.3a1.4,1.4,0,0,1-2-.1l-2.5-2.9.8-.7.6-.8,2.8,2.5a1.3,1.3,0,0,1,.1,2" transform="translate(-1317.5 -286.1)"/><rect class="cls-2" width="35" height="141.67"/><rect class="cls-3" y="107.4" width="35" height="35"/><path class="cls-1" d="M1330.7,406a3.8,3.8,0,0,0,3.7-3.7,3.7,3.7,0,0,0-3.7-3.7,3.7,3.7,0,0,0-3.7,3.7,3.7,3.7,0,0,0,3.7,3.7m0-6.1a2.3,2.3,0,1,1,0,4.7,2.3,2.3,0,1,1,0-4.7" transform="translate(-1317.5 -286.1)"/><path class="cls-1" d="M1344.5,416.6l-3.1-2.6a5.8,5.8,0,0,0-1.3-6.3,5.7,5.7,0,0,0-4.1-1.7h-9.6a1.9,1.9,0,0,0-1.9,1.9v5.7a1.9,1.9,0,0,0,1.9,1.9h.8v4.1a1.5,1.5,0,0,0,1.5,1.5h3.5a1.4,1.4,0,0,0,1.4-1.5v-2.7a5.8,5.8,0,0,0,4.5.1l2.6,3.1a2.6,2.6,0,0,0,3.9.2,2.7,2.7,0,0,0-.2-3.9m-12.2,3.3c0,.1,0,.1-.1.1h-3.6v-8.3a.7.7,0,1,0-1.3,0v2.8h-.9a.6.6,0,0,1-.6-.6v-5.7a.6.6,0,0,1,.6-.6h5.6l-.2.2a5.8,5.8,0,0,0,0,8.2l.5.4Zm3.7-3.5a4.5,4.5,0,0,1-3.1-1.3,4.5,4.5,0,0,1,0-6.3,4.4,4.4,0,0,1,6.3,0,4.5,4.5,0,0,1,0,6.3,4.3,4.3,0,0,1-3.1,1.3m7.8,3.3a1.4,1.4,0,0,1-2-.1l-2.5-2.9.8-.7.6-.8,2.8,2.5a1.3,1.3,0,0,1,.1,2" transform="translate(-1317.5 -286.1)"/><text class="cls-4" transform="translate(22.9 101.7) rotate(-90)">V<tspan class="cls-5" x="10.4" y="0">A</tspan><tspan class="cls-6" x="21.4" y="0">CA</tspan><tspan class="cls-7" x="43.6" y="0">N</tspan><tspan class="cls-6" x="55.9" y="0">CIE</tspan><tspan class="cls-8" x="82.2" y="0">S</tspan></text></svg>